<svg width="1440" height="1513" viewBox="0 0 1440 1513" fill="none" xmlns="http://www.w3.org/2000/svg">
<rect x="-283.438" y="1512.12" width="120" height="2816.4" transform="rotate(-120 -283.438 1512.12)" fill="url(#paint0_linear_12255_4707)"/>
<rect x="1506.47" y="62.2539" width="120" height="2181.58" transform="rotate(60 1506.47 62.2539)" fill="url(#paint1_linear_12255_4707)"/>
<path d="M560.685 868.803L473.261 816.248L445.466 832.356H445.143L391.008 800.302L391.331 799.488L445.466 831.38L473.261 815.271L473.907 815.597L561.008 867.99L560.685 868.803Z" fill="url(#paint2_linear_12255_4707)"/>
<g opacity="0.3">
<path opacity="0.3" d="M629.942 937.26V928.511L627.552 927.163C626.872 931.284 622.034 934.018 617.973 934.584L590.439 950.774L578.431 955.129L540.055 935.229L540.949 934.721C537.666 933.178 535.897 929.663 534.129 926.441L531.545 927.984L530.01 928.433V937.396C530.111 938.415 530.477 939.39 531.07 940.223C531.664 941.055 532.464 941.717 533.391 942.142L571.883 964.444C574.415 965.725 577.21 966.392 580.044 966.392C582.878 966.392 585.673 965.725 588.205 964.444L626.639 942.142C627.549 941.723 628.337 941.075 628.926 940.261C629.514 939.447 629.885 938.494 630.001 937.494C630.01 937.416 630.01 937.338 630.001 937.26H629.942Z" fill="url(#paint3_linear_12255_4707)"/>
<path opacity="0.3" d="M617.972 934.584L590.438 950.774L579.984 954.562V966.397C582.826 966.456 585.635 965.783 588.145 964.444L626.579 942.142C627.49 941.723 628.277 941.075 628.866 940.261C629.455 939.447 629.825 938.494 629.941 937.494C629.951 937.416 629.951 937.338 629.941 937.26V928.511L627.745 927.281H627.512C626.774 931.343 621.994 933.94 617.972 934.584Z" fill="#190101"/>
<path opacity="0.3" d="M571.883 955.539L533.449 933.237C528.941 930.64 528.941 926.382 533.449 923.766L571.883 901.464C574.415 900.183 577.21 899.516 580.044 899.516C582.879 899.516 585.674 900.183 588.205 901.464L626.639 923.766C631.128 926.382 631.128 930.64 626.639 933.237L588.205 955.539C585.676 956.829 582.88 957.501 580.044 957.501C577.208 957.501 574.412 956.829 571.883 955.539Z" fill="url(#paint4_linear_12255_4707)"/>
<g opacity="0.3">
<path opacity="0.3" d="M571.883 955.539L533.449 933.237C528.941 930.64 528.941 926.382 533.449 923.766L571.883 901.464C574.415 900.183 577.21 899.516 580.044 899.516C582.879 899.516 585.674 900.183 588.205 901.464L626.639 923.766C631.128 926.382 631.128 930.64 626.639 933.237L588.205 955.539C585.676 956.829 582.88 957.501 580.044 957.501C577.208 957.501 574.412 956.829 571.883 955.539Z" fill="#190101"/>
</g>
</g>
<path d="M579.984 927.359C577.461 927.405 574.967 926.807 572.737 925.621L534.302 903.319C533.395 902.998 532.608 902.403 532.052 901.614C531.496 900.825 531.197 899.882 531.197 898.915C531.197 897.948 531.496 897.005 532.052 896.216C532.608 895.427 533.395 894.832 534.302 894.511L572.737 872.21C574.982 871.073 577.461 870.481 579.975 870.481C582.488 870.481 584.967 871.073 587.213 872.21L625.666 894.511C626.574 894.832 627.36 895.427 627.916 896.216C628.473 897.005 628.771 897.948 628.771 898.915C628.771 899.882 628.473 900.825 627.916 901.614C627.36 902.403 626.574 902.998 625.666 903.319L587.232 925.621C585.001 926.807 582.508 927.405 579.984 927.359ZM579.984 871.155C577.578 871.106 575.198 871.671 573.067 872.795L534.633 895.097C533.835 895.364 533.141 895.876 532.649 896.561C532.156 897.246 531.892 898.07 531.892 898.915C531.892 899.76 532.156 900.584 532.649 901.269C533.141 901.954 533.835 902.467 534.633 902.733L573.067 925.035C575.209 926.123 577.575 926.69 579.975 926.69C582.374 926.69 584.741 926.123 586.882 925.035L625.316 902.694C626.114 902.428 626.809 901.915 627.301 901.23C627.793 900.545 628.057 899.721 628.057 898.876C628.057 898.031 627.793 897.207 627.301 896.522C626.809 895.837 626.114 895.325 625.316 895.058L586.882 872.756C584.754 871.648 582.381 871.097 579.984 871.155Z" fill="#5F0202"/>
<path opacity="0.4" d="M629.942 890.352V877.131L627.552 875.783C626.872 879.923 622.034 882.638 617.973 883.204L590.439 899.394L578.431 903.748L540.055 883.849L540.949 883.341C537.666 881.798 535.897 878.283 534.129 875.061L531.545 876.604L530.01 877.053V890.488C530.111 891.507 530.477 892.482 531.07 893.314C531.664 894.147 532.464 894.809 533.391 895.234L571.883 917.536C574.412 918.826 577.208 919.498 580.044 919.498C582.88 919.498 585.676 918.826 588.205 917.536L626.639 895.234C627.549 894.815 628.337 894.167 628.926 893.353C629.514 892.539 629.885 891.586 630.001 890.586C630.01 890.508 630.01 890.43 630.001 890.352H629.942Z" fill="#5F0202"/>
<path d="M629.942 878.596V869.847L627.552 868.499C626.872 872.639 622.034 875.354 617.973 875.92L590.439 892.109L578.431 896.464L540.055 876.565L540.949 876.057C537.666 874.514 535.897 870.999 534.129 867.777L531.545 869.339L530.01 869.769V878.732C530.111 879.751 530.477 880.726 531.07 881.558C531.664 882.391 532.464 883.053 533.391 883.478L571.883 905.78C574.412 907.07 577.208 907.742 580.044 907.742C582.88 907.742 585.676 907.07 588.205 905.78L626.639 883.478C627.549 883.058 628.337 882.411 628.926 881.596C629.514 880.782 629.885 879.83 630.001 878.83C630.01 878.752 630.01 878.673 630.001 878.596H629.942Z" fill="#2E2E2E"/>
<path opacity="0.3" d="M617.972 875.92L590.438 892.109L579.984 895.897V907.732C582.826 907.791 585.635 907.118 588.145 905.779L626.579 883.477C627.49 883.058 628.277 882.41 628.866 881.596C629.455 880.782 629.825 879.829 629.941 878.829C629.951 878.752 629.951 878.673 629.941 878.595V869.846L627.745 868.616H627.512C626.774 872.678 621.994 875.353 617.972 875.92Z" fill="#190101"/>
<path d="M571.883 896.835L533.449 874.533C528.941 871.916 528.941 867.659 533.449 865.061L571.883 842.818C574.412 841.528 577.208 840.856 580.044 840.856C582.88 840.856 585.676 841.528 588.205 842.818L626.639 865.12C631.128 867.717 631.128 871.975 626.639 874.591L588.147 896.835C585.623 898.106 582.839 898.768 580.015 898.768C577.192 898.768 574.408 898.106 571.883 896.835Z" fill="#2E2E2E"/>
<path d="M626.58 874.592L588.146 896.835C585.614 898.116 582.819 898.784 579.985 898.784C577.15 898.784 574.355 898.116 571.824 896.835L533.39 874.534C532.551 874.136 531.814 873.551 531.235 872.823C530.655 872.096 530.249 871.245 530.048 870.335C529.775 872.288 530.903 874.241 533.39 875.608L571.882 897.968C574.411 899.258 577.207 899.93 580.043 899.93C582.879 899.93 585.675 899.258 588.204 897.968L626.638 875.666C627.664 875.238 628.534 874.501 629.129 873.558C629.723 872.614 630.014 871.509 629.961 870.394C629.754 871.306 629.341 872.159 628.755 872.887C628.169 873.615 627.425 874.198 626.58 874.592Z" fill="#1C1C1C"/>
<path d="M80.7163 884.315L167.846 833.953L195.73 849.065L196.053 849.063L250.008 818.342L249.681 817.572L195.724 848.139L167.84 833.027L167.196 833.339L80.3885 883.545L80.7163 884.315Z" fill="url(#paint5_linear_12255_4707)"/>
<g opacity="0.3">
<path opacity="0.3" d="M126.007 936.313V927.564L123.597 926.217C122.916 930.357 118.076 933.072 114.032 933.638L86.4663 949.827L74.4523 954.182L36.0583 934.282L36.9526 933.775C33.6672 932.232 31.8981 928.717 30.1291 925.494L27.5436 927.057L26.0078 927.486V936.45C26.1096 937.469 26.4754 938.443 27.0689 939.276C27.6624 940.109 28.4628 940.77 29.3904 941.195L67.8427 963.497C70.3729 964.787 73.1702 965.46 76.0076 965.46C78.8449 965.46 81.6422 964.787 84.1723 963.497L122.625 941.195C123.539 940.779 124.331 940.132 124.924 939.318C125.516 938.504 125.889 937.549 126.007 936.548C126.007 936.548 126.007 936.391 126.007 936.313Z" fill="url(#paint6_linear_12255_4707)"/>
<path opacity="0.3" d="M114.033 933.676L86.4666 949.866L76.0078 953.654V965.489C78.8506 965.547 81.6612 964.875 84.1726 963.536L122.625 941.234C123.539 940.817 124.331 940.17 124.924 939.356C125.516 938.542 125.89 937.588 126.008 936.586C126.008 936.586 126.008 936.43 126.008 936.352V927.603L123.791 926.373H123.558C122.819 930.396 118.037 933.071 114.033 933.676Z" fill="#190101"/>
<path opacity="0.3" d="M67.8428 954.612L29.3904 932.31C24.8803 929.693 24.8803 925.436 29.3904 922.838L67.8428 900.478C70.3729 899.188 73.1702 898.516 76.0076 898.516C78.8449 898.516 81.6422 899.188 84.1724 900.478L122.625 922.78C127.115 925.377 127.115 929.634 122.625 932.251L84.1724 954.612C81.6395 955.892 78.8433 956.56 76.0076 956.56C73.1719 956.56 70.3756 955.892 67.8428 954.612Z" fill="url(#paint7_linear_12255_4707)"/>
<g opacity="0.3">
<path opacity="0.3" d="M67.8428 954.611L29.3904 932.31C24.8803 929.693 24.8803 925.436 29.3904 922.838L67.8428 900.478C70.3729 899.188 73.1702 898.516 76.0076 898.516C78.8449 898.516 81.6422 899.188 84.1724 900.478L122.625 922.78C127.115 925.377 127.115 929.634 122.625 932.251L84.1724 954.611C81.6395 955.892 78.8433 956.56 76.0076 956.56C73.1719 956.56 70.3756 955.892 67.8428 954.611Z" fill="#190101"/>
</g>
</g>
<path d="M76.0075 922.155C73.482 922.21 70.9848 921.612 68.7563 920.417L30.3039 898.115C29.4025 897.791 28.6229 897.195 28.0717 896.408C27.5205 895.621 27.2246 894.683 27.2246 893.721C27.2246 892.759 27.5205 891.821 28.0717 891.034C28.6229 890.248 29.4025 889.652 30.3039 889.327L68.7563 867.025C71.0032 865.88 73.4876 865.282 76.0075 865.282C78.5273 865.282 81.0116 865.88 83.2586 867.025L121.711 889.327C122.612 889.652 123.392 890.248 123.943 891.034C124.494 891.821 124.79 892.759 124.79 893.721C124.79 894.683 124.494 895.621 123.943 896.408C123.392 897.195 122.612 897.791 121.711 898.115L83.2586 920.417C81.0301 921.612 78.5329 922.21 76.0075 922.155ZM69.0868 919.831C71.2295 920.919 73.5968 921.486 75.9977 921.486C78.3987 921.486 80.7659 920.919 82.9087 919.831L121.361 897.529C122.22 897.333 122.987 896.849 123.536 896.157C124.086 895.465 124.385 894.606 124.385 893.721C124.385 892.836 124.086 891.977 123.536 891.285C122.987 890.594 122.22 890.11 121.361 889.913L82.9087 867.611C80.7687 866.514 78.4003 865.942 75.9977 865.942C73.5951 865.942 71.2268 866.514 69.0868 867.611L30.6344 889.913C29.7755 890.11 29.0084 890.594 28.459 891.285C27.9096 891.977 27.6103 892.836 27.6103 893.721C27.6103 894.606 27.9096 895.465 28.459 896.157C29.0084 896.849 29.7755 897.333 30.6344 897.529L69.0868 919.831Z" fill="#5F0202"/>
<path opacity="0.4" d="M126.007 885.168V871.927L123.597 870.58C122.916 874.72 118.076 877.434 114.032 878L86.4663 894.19L74.4523 898.525L36.0583 878.625L36.9526 878.118C33.6672 876.575 31.8981 873.06 30.1291 869.837L27.5436 871.4L26.0078 871.829V885.285C26.1012 886.304 26.464 887.279 27.0587 888.11C27.6534 888.941 28.4584 889.597 29.3904 890.011L67.8427 912.312C70.3729 913.602 73.1702 914.275 76.0076 914.275C78.8449 914.275 81.6422 913.602 84.1723 912.312L122.625 890.011C123.539 889.594 124.331 888.947 124.924 888.133C125.516 887.319 125.889 886.365 126.007 885.363C126.007 885.363 126.007 885.207 126.007 885.128V885.168Z" fill="#5F0202"/>
<path d="M126.007 873.392V864.643L123.597 863.295C122.916 867.435 118.076 870.15 114.032 870.716L86.4663 886.906L74.4523 891.26L36.0583 871.361L36.9526 870.853C33.6672 869.31 31.8981 865.795 30.1291 862.592L27.5436 864.135L26.0078 864.565V873.548C26.1128 874.563 26.4802 875.534 27.0735 876.363C27.6668 877.192 28.4655 877.851 29.3904 878.274L67.8427 900.576C70.3729 901.866 73.1702 902.538 76.0076 902.538C78.8449 902.538 81.6422 901.866 84.1723 900.576L122.625 878.274C123.539 877.857 124.331 877.21 124.924 876.396C125.516 875.582 125.889 874.628 126.007 873.626C126.007 873.626 126.007 873.47 126.007 873.392Z" fill="#2E2E2E"/>
<path d="M67.8428 891.69L29.3904 869.388C24.8803 866.771 24.8803 862.514 29.3904 859.917L67.8428 837.615C70.3729 836.325 73.1702 835.653 76.0076 835.653C78.8449 835.653 81.6422 836.325 84.1724 837.615L122.625 859.917C127.115 862.534 127.115 866.771 122.625 869.388L84.1724 891.69C81.6422 892.98 78.8449 893.652 76.0076 893.652C73.1702 893.652 70.3729 892.98 67.8428 891.69Z" fill="#2E2E2E"/>
<path d="M122.623 869.389L84.1711 891.69C81.6409 892.98 78.8436 893.653 76.0063 893.653C73.1689 893.653 70.3716 892.98 67.8414 891.69L29.3891 869.389C28.55 868.991 27.8125 868.406 27.233 867.678C26.6534 866.951 26.2472 866.099 26.0454 865.19C26.0009 866.309 26.2972 867.415 26.8946 868.361C27.492 869.306 28.3622 870.046 29.3891 870.482L67.8414 892.784C70.3743 894.065 73.1706 894.732 76.0063 894.732C78.842 894.732 81.6382 894.065 84.1711 892.784L122.623 870.482C123.65 870.048 124.519 869.307 125.114 868.361C125.708 867.415 125.999 866.308 125.948 865.19C125.749 866.098 125.347 866.949 124.77 867.677C124.194 868.404 123.46 868.99 122.623 869.389Z" fill="#1C1C1C"/>
<g opacity="0.3">
<path opacity="0.3" d="M628.911 582.398V573.649L626.503 572.302C625.823 576.423 620.987 579.157 616.948 579.723L589.408 595.893L577.406 600.267L539.049 580.367L539.942 579.84C536.66 578.317 534.892 574.782 533.125 571.579L530.542 573.122L529.008 573.552V582.535C529.099 583.555 529.461 584.531 530.055 585.362C530.65 586.194 531.455 586.849 532.387 587.261L570.803 609.563C573.33 610.853 576.125 611.525 578.959 611.525C581.794 611.525 584.589 610.853 587.116 609.563L625.532 587.261C626.445 586.844 627.236 586.198 627.828 585.383C628.42 584.569 628.793 583.615 628.911 582.613V582.398Z" fill="url(#paint8_linear_12255_4707)"/>
<path opacity="0.3" d="M616.947 579.723L589.408 595.893L578.959 599.701V611.535C581.799 611.594 584.607 610.922 587.116 609.582L625.531 587.28C626.445 586.864 627.236 586.217 627.828 585.403C628.42 584.588 628.793 583.634 628.911 582.633V582.418V573.669L626.716 572.439H626.483C625.706 576.481 620.948 579.156 616.947 579.723Z" fill="#190101"/>
<path opacity="0.3" d="M570.803 600.677L532.485 578.375C527.979 575.758 527.979 571.521 532.485 568.904L570.803 546.524C573.331 545.234 576.125 544.562 578.96 544.562C581.795 544.562 584.589 545.234 587.117 546.524L625.532 568.826C630.038 571.442 630.038 575.68 625.532 578.297L587.117 600.599C584.595 601.901 581.804 602.587 578.969 602.6C576.135 602.614 573.337 601.955 570.803 600.677Z" fill="url(#paint9_linear_12255_4707)"/>
<g opacity="0.3">
<path opacity="0.3" d="M570.803 600.677L532.485 578.375C527.979 575.758 527.979 571.521 532.485 568.904L570.803 546.524C573.331 545.234 576.125 544.562 578.96 544.562C581.795 544.562 584.589 545.234 587.117 546.524L625.532 568.826C630.038 571.442 630.038 575.68 625.532 578.297L587.117 600.599C584.595 601.901 581.804 602.587 578.969 602.6C576.135 602.614 573.337 601.955 570.803 600.677Z" fill="#190101"/>
</g>
</g>
<path d="M578.961 573.962C576.439 574.008 573.946 573.41 571.716 572.224L533.301 549.922C532.394 549.602 531.608 549.006 531.052 548.217C530.496 547.428 530.197 546.485 530.197 545.518C530.197 544.551 530.496 543.608 531.052 542.82C531.608 542.031 532.394 541.435 533.301 541.115L571.716 518.813C573.964 517.676 576.445 517.084 578.961 517.084C581.476 517.084 583.957 517.676 586.205 518.813L624.62 541.115C625.527 541.435 626.313 542.031 626.869 542.82C627.425 543.608 627.724 544.551 627.724 545.518C627.724 546.485 627.425 547.428 626.869 548.217C626.313 549.006 625.527 549.602 624.62 549.922L586.205 572.224C583.975 573.41 581.483 574.008 578.961 573.962ZM578.961 517.739C576.56 517.697 574.188 518.268 572.066 519.399L533.631 541.7C532.834 541.967 532.14 542.479 531.648 543.164C531.156 543.85 530.891 544.673 530.891 545.518C530.891 546.363 531.156 547.187 531.648 547.872C532.14 548.558 532.834 549.07 533.631 549.336L572.066 571.638C574.207 572.726 576.572 573.293 578.97 573.293C581.369 573.293 583.734 572.726 585.875 571.638L624.29 549.336C625.088 549.07 625.781 548.558 626.273 547.872C626.765 547.187 627.03 546.363 627.03 545.518C627.03 544.673 626.765 543.85 626.273 543.164C625.781 542.479 625.088 541.967 624.29 541.7L585.875 519.399C583.746 518.268 581.368 517.697 578.961 517.739Z" fill="#5F0202"/>
<path opacity="0.4" d="M628.911 536.955V523.734L626.503 522.387C625.823 526.507 620.987 529.241 616.948 529.807L589.408 545.997L577.406 550.43L539.049 530.53L539.942 530.022C536.66 528.479 534.892 524.964 533.125 521.742L530.542 523.285L529.008 523.734V537.17C529.132 538.185 529.518 539.15 530.128 539.969C530.737 540.788 531.55 541.432 532.484 541.837L570.803 564.1C573.33 565.39 576.125 566.062 578.959 566.062C581.794 566.062 584.589 565.39 587.116 564.1L625.532 541.798C626.445 541.381 627.236 540.735 627.828 539.92C628.42 539.106 628.793 538.152 628.911 537.15V536.916V536.955Z" fill="#5F0202"/>
<path d="M628.911 525.199V516.45L626.503 515.102C625.823 519.223 620.987 521.957 616.948 522.523L589.408 538.712L577.406 543.067L539.049 523.089L539.942 522.582C536.66 521.039 534.892 517.524 533.125 514.302L530.542 515.844L529.008 516.293V525.257C529.109 526.276 529.475 527.25 530.068 528.083C530.661 528.916 531.461 529.578 532.387 530.003L570.803 552.383C573.333 553.663 576.126 554.331 578.959 554.331C581.792 554.331 584.586 553.663 587.116 552.383L625.532 530.081C626.445 529.664 627.236 529.017 627.828 528.203C628.42 527.389 628.793 526.435 628.911 525.433V525.199Z" fill="#2E2E2E"/>
<path opacity="0.3" d="M616.947 522.524L589.408 538.713L578.959 542.502V554.336C581.799 554.395 584.607 553.722 587.116 552.383L625.531 530.081C626.445 529.665 627.236 529.018 627.828 528.204C628.42 527.389 628.793 526.435 628.911 525.433V525.199V516.45L626.716 515.22H626.483C625.706 519.282 620.948 521.957 616.947 522.524Z" fill="#190101"/>
<path d="M539.942 522.659L576.357 501.608C577.168 501.199 578.062 500.986 578.969 500.986C579.876 500.986 580.771 501.199 581.581 501.608L617.336 522.367L616.948 522.601C620.987 522.035 625.823 519.301 626.503 515.18L586.359 492.722L574.706 489.617L565.19 495.241L533.145 514.457C534.892 517.602 536.66 521.136 539.942 522.659Z" fill="url(#paint10_linear_12255_4707)"/>
<path opacity="0.3" d="M578.959 490.691L574.687 489.539L565.17 495.163L533.125 514.379C534.892 517.602 536.66 521.117 539.942 522.66L576.357 501.608C577.153 501.166 578.051 500.944 578.959 500.963V490.691Z" fill="#190101"/>
<path d="M570.803 543.477L532.485 521.137C527.979 518.539 527.979 514.282 532.485 511.665L570.9 489.363C573.431 488.082 576.224 487.415 579.057 487.415C581.89 487.415 584.684 488.082 587.214 489.363L625.629 511.665C630.135 514.282 630.135 518.539 625.629 521.137L587.214 543.438C584.677 544.751 581.866 545.438 579.013 545.445C576.16 545.452 573.346 544.778 570.803 543.477ZM581.582 492.703C580.771 492.294 579.877 492.081 578.97 492.081C578.063 492.081 577.168 492.294 576.358 492.703L537.942 515.005C537.622 515.109 537.343 515.313 537.145 515.586C536.948 515.86 536.841 516.189 536.841 516.528C536.841 516.866 536.948 517.196 537.145 517.469C537.343 517.743 537.622 517.947 537.942 518.051L576.358 540.353C577.168 540.762 578.063 540.975 578.97 540.975C579.877 540.975 580.771 540.762 581.582 540.353L619.997 518.051C620.308 517.937 620.577 517.73 620.767 517.458C620.956 517.185 621.058 516.86 621.058 516.528C621.058 516.195 620.956 515.87 620.767 515.598C620.577 515.325 620.308 515.118 619.997 515.005L581.582 492.703Z" fill="#2E2E2E"/>
<path d="M619.996 514.926L581.58 492.624C580.77 492.216 579.875 492.003 578.968 492.003C578.061 492.003 577.167 492.216 576.356 492.624L537.941 514.926C536.969 515.493 536.659 516.274 536.969 516.996C537.188 516.58 537.527 516.24 537.941 516.02L576.356 493.796C577.167 493.387 578.061 493.174 578.968 493.174C579.875 493.174 580.77 493.387 581.58 493.796L619.996 516.098C620.405 516.318 620.737 516.659 620.947 517.074C621.258 516.274 620.947 515.493 619.996 514.926Z" fill="#1C1C1C"/>
<path d="M625.533 521.136L587.117 543.438C584.59 544.728 581.795 545.4 578.96 545.4C576.126 545.4 573.331 544.728 570.804 543.438L532.485 521.136C531.647 520.744 530.909 520.164 530.33 519.439C529.75 518.714 529.345 517.865 529.145 516.957C529.102 518.073 529.398 519.176 529.995 520.119C530.592 521.061 531.461 521.797 532.485 522.23L570.804 544.571C573.331 545.861 576.126 546.533 578.96 546.533C581.795 546.533 584.59 545.861 587.117 544.571L625.533 522.269C626.557 521.836 627.426 521.1 628.023 520.158C628.62 519.215 628.916 518.113 628.873 516.996C628.668 517.897 628.26 518.738 627.681 519.456C627.102 520.174 626.367 520.748 625.533 521.136Z" fill="#1C1C1C"/>
<path d="M571.889 542.853L533.474 520.551C529.589 518.285 529.589 514.692 533.474 512.349L571.889 490.047C574.078 488.922 576.501 488.336 578.958 488.336C581.416 488.336 583.839 488.922 586.028 490.047L624.443 512.349C628.327 514.614 628.327 518.207 624.443 520.551L586.028 542.853C583.839 543.977 581.416 544.563 578.958 544.563C576.501 544.563 574.078 543.977 571.889 542.853ZM582.648 492.078C581.506 491.49 580.242 491.184 578.958 491.184C577.675 491.184 576.411 491.49 575.268 492.078L536.853 514.302C536.405 514.452 536.016 514.741 535.74 515.126C535.464 515.512 535.315 515.975 535.315 516.45C535.315 516.925 535.464 517.388 535.74 517.773C536.016 518.159 536.405 518.447 536.853 518.598L575.21 540.9C576.356 541.477 577.619 541.778 578.9 541.778C580.181 541.778 581.445 541.477 582.59 540.9L621.025 518.598C621.473 518.447 621.862 518.159 622.138 517.773C622.414 517.388 622.563 516.925 622.563 516.45C622.563 515.975 622.414 515.512 622.138 515.126C621.862 514.741 621.473 514.452 621.025 514.302L582.648 492.078Z" fill="#2E2E2E"/>
<path opacity="0.4" d="M581.583 492.624C580.772 492.216 579.878 492.003 578.971 492.003C578.064 492.003 577.169 492.216 576.358 492.624L537.943 514.926C537.623 515.031 537.344 515.234 537.146 515.508C536.948 515.782 536.842 516.111 536.842 516.45C536.842 516.788 536.948 517.117 537.146 517.391C537.344 517.665 537.623 517.868 537.943 517.973L576.358 540.275C577.169 540.683 578.064 540.896 578.971 540.896C579.878 540.896 580.772 540.683 581.583 540.275L619.998 517.973C620.309 517.859 620.578 517.652 620.767 517.379C620.957 517.107 621.059 516.782 621.059 516.45C621.059 516.117 620.957 515.792 620.767 515.52C620.578 515.247 620.309 515.04 619.998 514.926L581.583 492.624Z" fill="#5F0202"/>
<path d="M552.602 561.186L463.582 610.965L463.572 643.2L463.41 643.481L408.709 674.55L408.169 673.862L462.73 642.712L462.741 610.477L463.344 610.077L552.062 560.498L552.602 561.186Z" fill="url(#paint11_linear_12255_4707)"/>
<path opacity="0.4" d="M315.968 875.835C392.184 875.835 453.969 839.969 453.969 795.725C453.969 751.481 392.184 715.615 315.968 715.615C239.752 715.615 177.967 751.481 177.967 795.725C177.967 839.969 239.752 875.835 315.968 875.835Z" fill="#190101"/>
<path d="M315.969 843.984C402.716 843.984 473.039 803.162 473.039 752.804C473.039 702.447 402.716 661.624 315.969 661.624C229.221 661.624 158.898 702.447 158.898 752.804C158.898 803.162 229.221 843.984 315.969 843.984Z" fill="url(#paint12_linear_12255_4707)"/>
<path opacity="0.48" d="M473.055 722.781H469.173C462.869 706.544 448.831 691.102 427.044 678.471C365.707 642.858 266.247 642.858 204.988 678.471C184.413 690.415 170.825 704.842 163.977 720.096H159.055V740.315C157.828 764.53 173.139 788.98 204.988 807.451C266.325 843.048 365.785 843.048 427.122 807.451C457.791 789.636 473.133 766.31 473.133 742.969L473.055 722.781Z" fill="url(#paint13_linear_12255_4707)"/>
<path opacity="0.48" d="M469.174 714.943C468.956 714.381 468.723 713.819 468.475 713.257V699.97H460.245V699.018C458.094 696.117 455.76 693.358 453.257 690.758V699.97H448.598V686.184C446.414 684.185 444.074 682.228 441.579 680.313V700.001H436.921V676.816C434.669 675.255 432.262 673.693 429.871 672.226V699.923H425.213V669.478C422.914 668.177 420.559 666.928 418.147 665.731V699.923H413.489V663.56C411.159 662.519 408.799 661.479 406.408 660.438V699.923H401.749V667.994H394.653V699.97H389.994V676.816H382.866V700.017H378.208V685.59H371.065V700.017H366.499V694.38H359.403V700.017H272.661V694.38H265.487V700.017H260.922V685.59H253.81V700.017H249.151V676.816H242.023V700.017H237.365V667.994H230.268V699.97H225.61V660.453C223.219 661.432 220.858 662.473 218.529 663.576V700.017H213.87V665.746C211.463 666.948 209.103 668.182 206.805 669.478V699.97H202.146V672.226C199.693 673.704 197.343 675.228 195.097 676.8V699.97H190.438V680.235C187.938 682.14 185.609 684.107 183.419 686.106V699.97H178.761V690.602C176.267 693.204 173.933 695.957 171.773 698.846V699.892H163.543V712.148H160.049V746.044C161.411 752.373 163.764 758.444 167.021 764.03V742.906H171.773V771.275C173.924 774.165 176.259 776.913 178.761 779.503V742.906H183.419V784.093C185.609 786.076 187.953 788.043 190.438 789.948V742.906H195.097V793.383C197.353 794.944 199.703 796.474 202.146 797.973V742.906H206.805V800.674C209.103 801.954 211.458 803.198 213.87 804.405V742.906H218.529V806.654C220.858 807.695 223.219 808.735 225.61 809.776V742.953H230.268V811.65C232.598 812.54 234.927 813.383 237.365 814.195V742.906H242.023V815.569C244.384 816.303 246.682 816.99 249.151 817.645V742.906H253.81V818.894C256.17 819.472 258.546 820.034 260.953 820.549V742.953H265.518V821.502C267.894 821.97 270.285 822.392 272.692 822.798V742.906H277.242V823.453C279.618 823.812 282.025 824.125 284.432 824.421V742.906H288.95V824.921C291.342 825.155 293.749 825.358 296.171 825.545V742.906H300.659V825.842C303.081 825.967 305.488 826.076 307.911 826.154V742.906H312.383V826.248C314.826 826.248 317.264 826.248 319.697 826.248V742.906H324.169V826.154C326.591 826.154 328.998 825.967 331.421 825.842V742.906H335.908V825.545C338.331 825.358 340.738 825.155 343.129 824.905V742.906H347.648V824.406C350.055 824.125 352.462 823.797 354.838 823.453V742.906H359.403V822.735C361.81 822.345 364.201 821.908 366.577 821.439V742.906H371.142V820.456C373.549 819.925 375.925 819.378 378.286 818.785V742.906H382.944V817.63C385.335 816.974 387.711 816.271 390.072 815.553V742.906H394.73V814.054C397.122 813.258 399.497 812.493 401.827 811.525V742.906H406.485V809.698C408.877 808.715 411.237 807.7 413.566 806.576V742.906H418.225V804.405C420.637 803.198 422.992 801.954 425.29 800.674V742.906H429.949V797.942C432.402 796.443 434.752 794.908 436.999 793.336V742.906H441.657V789.901C444.142 787.975 446.481 786.019 448.676 784.03V742.906H453.335V779.456C455.841 776.86 458.176 774.101 460.322 771.197V742.906H464.996V763.968C468.279 758.333 470.633 752.201 471.969 745.81V714.958L469.174 714.943Z" fill="#2D0101"/>
<path d="M315.969 806.155C402.716 806.155 473.039 765.332 473.039 714.974C473.039 664.617 402.716 623.794 315.969 623.794C229.221 623.794 158.898 664.617 158.898 714.974C158.898 765.332 229.221 806.155 315.969 806.155Z" fill="url(#paint14_linear_12255_4707)"/>
<path opacity="0.3" d="M316.031 623.732C280.44 623.732 244.849 630.711 215.873 644.653L169.008 747.074C176.648 758.862 188.589 769.901 204.91 779.378C215.442 785.408 226.562 790.336 238.094 794.085L316.031 623.732Z" fill="#EA5757"/>
<path opacity="0.3" d="M360.038 627.448L279.414 803.656C298.897 806.316 318.609 806.84 338.205 805.217L412.415 643.014C395.687 635.602 378.085 630.371 360.038 627.448Z" fill="#EA5757"/>
<g opacity="0.05">
<path opacity="0.05" d="M315.969 795.725C392.794 795.725 455.073 759.572 455.073 714.974C455.073 670.377 392.794 634.224 315.969 634.224C239.144 634.224 176.865 670.377 176.865 714.974C176.865 759.572 239.144 795.725 315.969 795.725Z" fill="url(#paint15_linear_12255_4707)"/>
<g opacity="0.05">
<path opacity="0.05" d="M67.4985 714.631L66.0078 713.757L308.345 573.083L309.835 573.958L67.4985 714.631Z" fill="#EA5757"/>
<path opacity="0.05" d="M71.7681 717.097L70.2773 716.239L312.614 575.565L314.105 576.424L71.7681 717.097Z" fill="#EA5757"/>
<path opacity="0.05" d="M76.0396 719.581L74.5488 718.722L316.886 578.049L318.376 578.907L76.0396 719.581Z" fill="#EA5757"/>
<path opacity="0.05" d="M80.3091 722.063L78.8184 721.204L321.155 580.531L322.646 581.389L80.3091 722.063Z" fill="#EA5757"/>
<path opacity="0.05" d="M84.5806 724.545L83.0898 723.671L325.427 582.998L326.917 583.872L84.5806 724.545Z" fill="#EA5757"/>
<path opacity="0.05" d="M88.8501 727.012L87.3594 726.153L329.696 585.48L331.187 586.339L88.8501 727.012Z" fill="#EA5757"/>
<path opacity="0.05" d="M93.1196 729.494L91.6289 728.635L333.966 587.962L335.441 588.821L93.1196 729.494Z" fill="#EA5757"/>
<path opacity="0.05" d="M97.3911 731.977L95.9004 731.118L338.237 590.445L339.712 591.303L97.3911 731.977Z" fill="#EA5757"/>
<path opacity="0.05" d="M101.661 734.46L100.17 733.585L342.507 592.912L343.982 593.771L101.661 734.46Z" fill="#EA5757"/>
<path opacity="0.05" d="M105.932 736.926L104.441 736.068L346.778 595.394L348.254 596.253L105.932 736.926Z" fill="#EA5757"/>
<path opacity="0.05" d="M110.186 739.409L108.711 738.55L351.048 597.877L352.523 598.735L110.186 739.409Z" fill="#EA5757"/>
<path opacity="0.05" d="M114.456 741.891L112.98 741.033L355.317 600.359L356.793 601.218L114.456 741.891Z" fill="#EA5757"/>
<path opacity="0.05" d="M118.727 744.358L117.252 743.499L359.589 602.826L361.064 603.685L118.727 744.358Z" fill="#EA5757"/>
<path opacity="0.05" d="M122.999 746.841L121.523 745.982L363.86 605.309L365.336 606.167L122.999 746.841Z" fill="#EA5757"/>
<path opacity="0.05" d="M127.268 749.323L125.793 748.464L368.13 607.791L369.605 608.649L127.268 749.323Z" fill="#EA5757"/>
<path opacity="0.05" d="M131.538 751.805L130.047 750.947L372.384 610.258L373.874 611.132L131.538 751.805Z" fill="#EA5757"/>
<path opacity="0.05" d="M135.809 754.288L134.318 753.414L376.655 612.74L378.146 613.599L135.809 754.288Z" fill="#EA5757"/>
<path opacity="0.05" d="M140.079 756.755L138.588 755.896L380.925 615.223L382.416 616.082L140.079 756.755Z" fill="#EA5757"/>
<path opacity="0.05" d="M144.35 759.237L142.859 758.379L385.196 617.705L386.687 618.564L144.35 759.237Z" fill="#EA5757"/>
<path opacity="0.05" d="M148.62 761.72L147.129 760.846L389.466 620.172L390.957 621.047L148.62 761.72Z" fill="#EA5757"/>
<path opacity="0.05" d="M152.889 764.186L151.398 763.328L393.735 622.654L395.226 623.513L152.889 764.186Z" fill="#EA5757"/>
<path opacity="0.05" d="M157.161 766.669L155.67 765.81L398.007 625.137L399.498 625.996L157.161 766.669Z" fill="#EA5757"/>
<path opacity="0.05" d="M161.43 769.152L159.939 768.293L402.276 627.62L403.767 628.479L161.43 769.152Z" fill="#EA5757"/>
<path opacity="0.05" d="M165.702 771.634L164.211 770.775L406.548 630.086L408.039 630.961L165.702 771.634Z" fill="#EA5757"/>
<path opacity="0.05" d="M169.971 774.1L168.48 773.242L410.817 632.568L412.308 633.427L169.971 774.1Z" fill="#EA5757"/>
<path opacity="0.05" d="M174.241 776.583L172.75 775.724L415.087 635.051L416.562 635.909L174.241 776.583Z" fill="#EA5757"/>
<path opacity="0.05" d="M178.512 779.065L177.021 778.207L419.358 637.533L420.834 638.392L178.512 779.065Z" fill="#EA5757"/>
<path opacity="0.05" d="M182.766 781.548L181.291 780.674L423.628 640L425.103 640.875L182.766 781.548Z" fill="#EA5757"/>
<path opacity="0.05" d="M187.038 784.015L185.562 783.156L427.899 642.483L429.375 643.342L187.038 784.015Z" fill="#EA5757"/>
<path opacity="0.05" d="M191.307 786.497L189.832 785.639L432.169 644.965L433.644 645.824L191.307 786.497Z" fill="#EA5757"/>
<path opacity="0.05" d="M195.577 788.979L194.102 788.121L436.438 647.447L437.914 648.306L195.577 788.979Z" fill="#EA5757"/>
<path opacity="0.05" d="M199.848 791.462L198.373 790.588L440.71 649.915L442.185 650.774L199.848 791.462Z" fill="#EA5757"/>
<path opacity="0.05" d="M204.118 793.929L202.643 793.07L444.964 652.397L446.455 653.256L204.118 793.929Z" fill="#EA5757"/>
<path opacity="0.05" d="M208.389 796.412L206.914 795.553L449.251 654.88L450.726 655.738L208.389 796.412Z" fill="#EA5757"/>
<path opacity="0.05" d="M212.659 798.894L211.184 798.036L453.505 657.347L454.996 658.221L212.659 798.894Z" fill="#EA5757"/>
<path opacity="0.05" d="M216.928 801.377L215.453 800.502L457.774 659.829L459.265 660.703L216.928 801.377Z" fill="#EA5757"/>
<path opacity="0.05" d="M221.2 803.843L219.709 802.984L462.046 662.311L463.537 663.17L221.2 803.843Z" fill="#EA5757"/>
<path opacity="0.05" d="M225.471 806.326L223.98 805.468L466.317 664.794L467.808 665.653L225.471 806.326Z" fill="#EA5757"/>
<path opacity="0.05" d="M229.741 808.808L228.25 807.95L470.587 667.261L472.078 668.135L229.741 808.808Z" fill="#EA5757"/>
<path opacity="0.05" d="M234.01 811.291L232.52 810.417L474.856 669.743L476.347 670.618L234.01 811.291Z" fill="#EA5757"/>
<path opacity="0.05" d="M238.28 813.758L236.789 812.899L479.126 672.226L480.617 673.084L238.28 813.758Z" fill="#EA5757"/>
<path opacity="0.05" d="M242.553 816.24L241.062 815.381L483.399 674.708L484.89 675.567L242.553 816.24Z" fill="#EA5757"/>
<path opacity="0.05" d="M246.823 818.723L245.332 817.864L487.669 677.191L489.16 678.05L246.823 818.723Z" fill="#EA5757"/>
<path opacity="0.05" d="M251.092 821.206L249.602 820.331L491.938 679.658L493.429 680.517L251.092 821.206Z" fill="#EA5757"/>
<path opacity="0.05" d="M255.362 823.672L253.871 822.814L496.208 682.14L497.699 682.999L255.362 823.672Z" fill="#EA5757"/>
<path opacity="0.05" d="M259.633 826.154L258.143 825.296L500.479 684.622L501.97 685.481L259.633 826.154Z" fill="#EA5757"/>
<path opacity="0.05" d="M263.903 828.637L262.412 827.778L504.749 687.089L506.24 687.964L263.903 828.637Z" fill="#EA5757"/>
<path opacity="0.05" d="M268.174 831.104L266.684 830.245L509.02 689.572L510.496 690.43L268.174 831.104Z" fill="#EA5757"/>
<path opacity="0.05" d="M272.444 833.587L270.953 832.728L513.29 692.055L514.765 692.913L272.444 833.587Z" fill="#EA5757"/>
<path opacity="0.05" d="M276.698 836.069L275.223 835.21L517.56 694.537L519.035 695.396L276.698 836.069Z" fill="#EA5757"/>
<path opacity="0.05" d="M280.967 838.552L279.492 837.693L521.829 697.004L523.304 697.878L280.967 838.552Z" fill="#EA5757"/>
<path opacity="0.05" d="M285.241 841.018L283.766 840.159L526.103 699.486L527.578 700.345L285.241 841.018Z" fill="#EA5757"/>
<path opacity="0.05" d="M289.51 843.5L288.035 842.642L530.372 701.968L531.847 702.827L289.51 843.5Z" fill="#EA5757"/>
<path opacity="0.05" d="M293.78 845.984L292.305 845.125L534.642 704.452L536.117 705.31L293.78 845.984Z" fill="#EA5757"/>
<path opacity="0.05" d="M298.049 848.466L296.559 847.592L538.895 706.918L540.386 707.793L298.049 848.466Z" fill="#EA5757"/>
<path opacity="0.05" d="M302.319 850.933L300.828 850.074L543.165 709.401L544.656 710.259L302.319 850.933Z" fill="#EA5757"/>
<path opacity="0.05" d="M306.59 853.415L305.1 852.556L547.436 711.883L548.927 712.742L306.59 853.415Z" fill="#EA5757"/>
<path opacity="0.05" d="M310.86 855.898L309.369 855.039L551.706 714.366L553.197 715.224L310.86 855.898Z" fill="#EA5757"/>
<path opacity="0.05" d="M315.131 858.379L313.641 857.505L555.977 716.832L557.468 717.706L315.131 858.379Z" fill="#EA5757"/>
<path opacity="0.05" d="M319.401 860.847L317.91 859.989L560.247 719.315L561.738 720.174L319.401 860.847Z" fill="#EA5757"/>
<path opacity="0.05" d="M323.67 863.329L322.18 862.471L564.517 721.797L566.007 722.656L323.67 863.329Z" fill="#EA5757"/>
</g>
</g>
<path d="M217.612 663.311C271.962 631.788 360.008 631.788 414.342 663.311C440.306 678.393 453.847 697.941 454.996 717.691C456.238 696.13 442.697 674.334 414.342 657.878C359.993 626.339 271.931 626.339 217.612 657.878C189.257 674.334 175.686 696.13 176.959 717.691C178.108 697.941 191.695 678.378 217.612 663.311Z" fill="url(#paint16_linear_12255_4707)"/>
<path d="M241.432 696.816V707.324L325.347 756.037L334.4 750.775L241.432 696.816Z" fill="#2D0101"/>
<path d="M317.895 638.986C312.412 639.1 306.99 637.799 302.149 635.207C297.77 632.678 295.363 629.243 295.363 625.558C295.363 621.874 297.77 618.455 302.149 615.91C310.83 610.882 324.96 610.882 333.656 615.91C338.02 618.455 340.427 621.889 340.427 625.558C340.427 629.227 338.02 632.678 333.656 635.207C328.81 637.799 323.384 639.1 317.895 638.986ZM317.895 613.849C312.71 613.753 307.586 614.983 303.003 617.424C299.199 619.641 297.102 622.529 297.102 625.558C297.102 628.587 299.199 631.491 303.019 633.708C311.218 638.47 324.572 638.47 332.787 633.708C336.591 631.491 338.703 628.603 338.703 625.558C338.703 622.514 336.591 619.641 332.787 617.424C328.205 614.981 323.08 613.751 317.895 613.849Z" fill="#EA5757"/>
<path d="M327.227 630.976C324.341 632.452 321.148 633.221 317.91 633.221C314.672 633.221 311.48 632.452 308.593 630.976C303.438 627.994 303.438 623.17 308.593 620.156C311.48 618.681 314.672 617.912 317.91 617.912C321.148 617.912 324.341 618.681 327.227 620.156C332.367 623.139 332.367 627.994 327.227 630.976Z" fill="#C50404"/>
<path d="M372.29 599.344L363.051 593.989L378.781 584.855L388.036 590.21L372.29 599.344Z" fill="#EA5757"/>
<path opacity="0.8" d="M355.674 590.882L344.027 587.432L354.136 575.925L365.783 579.375L355.674 590.882Z" fill="#EA5757"/>
<path opacity="0.6" d="M335.365 585.792L322.461 584.606L325.939 571.85L338.843 573.037L335.365 585.792Z" fill="#EA5757"/>
<path opacity="0.4" d="M313.343 584.606L300.424 585.792L296.945 573.037L309.849 571.85L313.343 584.606Z" fill="#EA5757"/>
<path opacity="0.2" d="M291.759 587.432L280.113 590.882L270.02 579.36L281.65 575.925L291.759 587.432Z" fill="#EA5757"/>
<path opacity="0.1" d="M272.737 593.989L263.498 599.344L247.768 590.21L257.007 584.855L272.737 593.989Z" fill="#EA5757"/>
<path opacity="0.2" d="M341.452 613.786L338.207 611.897L361.686 598.267L364.931 600.156L341.452 613.786Z" fill="#EA5757"/>
<path opacity="0.4" d="M334.014 610.133L329.93 608.915L345.008 591.74L349.092 592.958L334.014 610.133Z" fill="#EA5757"/>
<path opacity="0.6" d="M325.023 607.994L320.488 607.572L325.675 588.54L330.209 588.962L325.023 607.994Z" fill="#EA5757"/>
<path opacity="0.8" d="M315.318 607.572L310.784 607.994L305.582 588.962L310.116 588.54L315.318 607.572Z" fill="#EA5757"/>
<path d="M305.861 608.915L301.777 610.133L286.699 592.958L290.799 591.74L305.861 608.915Z" fill="#EA5757"/>
<path d="M297.599 611.897L294.354 613.786L270.875 600.156L274.12 598.267L297.599 611.897Z" fill="#EA5757"/>
<path d="M291.311 616.206L289.23 618.579L259.648 609.82L261.729 607.447L291.311 616.206Z" fill="#EA5757"/>
<path d="M287.628 621.436L286.913 624.059L254.117 621.046L254.832 618.407L287.628 621.436Z" fill="#EA5757"/>
<path d="M286.913 627.057L287.628 629.696L254.832 632.709L254.117 630.071L286.913 627.057Z" fill="#EA5757"/>
<path d="M289.23 632.553L291.311 634.926L261.729 643.669L259.648 641.296L289.23 632.553Z" fill="#EA5757"/>
<path d="M294.354 637.346L297.599 639.236L274.12 652.866L270.875 650.977L294.354 637.346Z" fill="#EA5757"/>
<path opacity="0.6" d="M410.117 581.311C444.637 605.48 446.562 640.031 415.94 665.387L428.363 676.894C470.616 646.323 469.684 602.31 425.615 572.286L410.117 581.311Z" fill="#C50404"/>
<path opacity="0.2" d="M336.576 694.178C300.068 697.504 261.402 691.056 233.28 674.693C227.14 671.185 221.41 666.996 216.199 662.203L195.127 666.418C201.906 673.12 209.534 678.895 217.814 683.593C253.39 704.233 303.22 711.571 348.905 705.623L336.576 694.178Z" fill="#EA5757"/>
<path d="M177.859 637.222L198.931 633.006C195.204 612.834 206.695 591.897 233.28 576.44C277.319 550.882 347.119 549.414 394.139 572.022L409.59 563.06C354.014 535.518 270.409 536.986 217.86 567.494C185.111 586.495 171.787 612.506 177.859 637.222Z" fill="#C50404"/>
<path d="M304.992 671.492L296.746 666.715L402.619 605.246L410.865 610.024L304.992 671.492Z" fill="#C50404"/>
<path opacity="0.8" d="M316.699 678.299L308.453 673.506L354.479 646.792L362.725 651.585L316.699 678.299Z" fill="#C50404"/>
<path opacity="0.6" d="M329.23 685.575L320.984 680.782L394.248 638.267L402.493 643.045L329.23 685.575Z" fill="#C50404"/>
<path opacity="0.2" d="M341.576 692.726L333.314 687.948L390.35 654.848L398.596 659.626L341.576 692.726Z" fill="#C50404"/>
<defs>
<linearGradient id="paint0_linear_12255_4707" x1="-223.438" y1="2490.81" x2="-223.438" y2="4328.53" gradientUnits="userSpaceOnUse">
<stop stop-color="white" stop-opacity="0.04"/>
<stop offset="1" stop-color="white" stop-opacity="0.01"/>
</linearGradient>
<linearGradient id="paint1_linear_12255_4707" x1="1566.47" y1="820.345" x2="1566.47" y2="2243.84" gradientUnits="userSpaceOnUse">
<stop stop-color="white" stop-opacity="0"/>
<stop offset="1" stop-color="white" stop-opacity="0.1"/>
<stop offset="1" stop-color="white" stop-opacity="0.02"/>
</linearGradient>
<linearGradient id="paint2_linear_12255_4707" x1="390.967" y1="834.125" x2="561.06" y2="834.125" gradientUnits="userSpaceOnUse">
<stop stop-color="#C50404"/>
<stop offset="0.1042" stop-color="#E11919"/>
<stop offset="0.2607" stop-color="#EA5757"/>
<stop offset="0.4503" stop-color="#F3B0B0"/>
<stop offset="0.6638" stop-color="#EDCFCF"/>
<stop offset="0.7742" stop-color="#F2E3E3"/>
</linearGradient>
<linearGradient id="paint3_linear_12255_4707" x1="539.958" y1="911.111" x2="619.454" y2="956.774" gradientUnits="userSpaceOnUse">
<stop stop-color="#BCBEFF"/>
<stop offset="0.23" stop-color="#AAADF8"/>
<stop offset="0.68" stop-color="#7C83E5"/>
<stop offset="1" stop-color="#5761D7"/>
</linearGradient>
<linearGradient id="paint4_linear_12255_4707" x1="530.01" y1="928.511" x2="629.943" y2="928.511" gradientUnits="userSpaceOnUse">
<stop stop-color="#E9E9FD"/>
<stop offset="0.36" stop-color="#D3D2F9"/>
<stop offset="0.71" stop-color="#C5C4F7"/>
<stop offset="1" stop-color="#C0BFF6"/>
</linearGradient>
<linearGradient id="paint5_linear_12255_4707" x1="250.238" y1="850.42" x2="80.1479" y2="851.419" gradientUnits="userSpaceOnUse">
<stop stop-color="#C50404"/>
<stop offset="0.1042" stop-color="#E11919"/>
<stop offset="0.2607" stop-color="#EA5757"/>
<stop offset="0.4503" stop-color="#F3B0B0"/>
<stop offset="0.6638" stop-color="#EDCFCF"/>
<stop offset="0.7742" stop-color="#F2E3E3"/>
</linearGradient>
<linearGradient id="paint6_linear_12255_4707" x1="43075.8" y1="12274" x2="44838" y2="14820.6" gradientUnits="userSpaceOnUse">
<stop stop-color="#BCBEFF"/>
<stop offset="0.23" stop-color="#AAADF8"/>
<stop offset="0.68" stop-color="#7C83E5"/>
<stop offset="1" stop-color="#5761D7"/>
</linearGradient>
<linearGradient id="paint7_linear_12255_4707" x1="42557.6" y1="17897.9" x2="47700.8" y2="17897.9" gradientUnits="userSpaceOnUse">
<stop stop-color="#E9E9FD"/>
<stop offset="0.36" stop-color="#D3D2F9"/>
<stop offset="0.71" stop-color="#C5C4F7"/>
<stop offset="1" stop-color="#C0BFF6"/>
</linearGradient>
<linearGradient id="paint8_linear_12255_4707" x1="26636.7" y1="5563.99" x2="28399" y2="8108.35" gradientUnits="userSpaceOnUse">
<stop stop-color="#BCBEFF"/>
<stop offset="0.23" stop-color="#AAADF8"/>
<stop offset="0.68" stop-color="#7C83E5"/>
<stop offset="1" stop-color="#5761D7"/>
</linearGradient>
<linearGradient id="paint9_linear_12255_4707" x1="26100.5" y1="8315.39" x2="31234.5" y2="8315.39" gradientUnits="userSpaceOnUse">
<stop stop-color="#E9E9FD"/>
<stop offset="0.36" stop-color="#D3D2F9"/>
<stop offset="0.71" stop-color="#C5C4F7"/>
<stop offset="1" stop-color="#C0BFF6"/>
</linearGradient>
<linearGradient id="paint10_linear_12255_4707" x1="543.71" y1="495.964" x2="614.578" y2="536.655" gradientUnits="userSpaceOnUse">
<stop offset="0.24" stop-color="#2D0101"/>
<stop offset="0.39" stop-color="#5F0202"/>
<stop offset="0.55" stop-color="#5F0202"/>
<stop offset="0.7" stop-color="#C50404"/>
<stop offset="0.85" stop-color="#E11919"/>
<stop offset="1" stop-color="#E11919"/>
</linearGradient>
<linearGradient id="paint11_linear_12255_4707" x1="437.847" y1="691.497" x2="523.475" y2="543.858" gradientUnits="userSpaceOnUse">
<stop stop-color="#C50404"/>
<stop offset="0.1042" stop-color="#E11919"/>
<stop offset="0.2607" stop-color="#EA5757"/>
<stop offset="0.4503" stop-color="#F3B0B0"/>
<stop offset="0.6638" stop-color="#EDCFCF"/>
<stop offset="0.7742" stop-color="#F2E3E3"/>
</linearGradient>
<linearGradient id="paint12_linear_12255_4707" x1="99939" y1="-15893.1" x2="119026" y2="14956.6" gradientUnits="userSpaceOnUse">
<stop stop-color="#190101"/>
<stop offset="0.02" stop-color="#E11919"/>
<stop offset="0.09" stop-color="#C50404"/>
<stop offset="0.17" stop-color="#C50404"/>
<stop offset="0.26" stop-color="#C50404"/>
<stop offset="0.35" stop-color="#C50404"/>
<stop offset="0.44" stop-color="#5F0202"/>
<stop offset="0.54" stop-color="#5F0202"/>
<stop offset="0.66" stop-color="#2D0101"/>
<stop offset="0.82" stop-color="#0F0F0F"/>
</linearGradient>
<linearGradient id="paint13_linear_12255_4707" x1="135.187" y1="742.906" x2="446.222" y2="742.906" gradientUnits="userSpaceOnUse">
<stop stop-color="#E11919"/>
<stop offset="0.15" stop-color="#EA5757"/>
<stop offset="0.33" stop-color="#F3B0B0"/>
<stop offset="0.52" stop-color="#E11919"/>
<stop offset="0.72" stop-color="#C50404"/>
<stop offset="0.93" stop-color="#5F0202"/>
<stop offset="1" stop-color="#190101"/>
</linearGradient>
<linearGradient id="paint14_linear_12255_4707" x1="102674" y1="-21964.7" x2="121762" y2="8885.13" gradientUnits="userSpaceOnUse">
<stop stop-color="#2D0101"/>
<stop offset="0.02" stop-color="#E11919"/>
<stop offset="0.09" stop-color="#E11919"/>
<stop offset="0.17" stop-color="#E11919"/>
<stop offset="0.26" stop-color="#C50404"/>
<stop offset="0.35" stop-color="#5F0202"/>
<stop offset="0.44" stop-color="#5F0202"/>
<stop offset="0.54" stop-color="#5F0202"/>
<stop offset="0.66" stop-color="#190101"/>
<stop offset="0.82" stop-color="#190101"/>
</linearGradient>
<linearGradient id="paint15_linear_12255_4707" x1="291.45" y1="591.772" x2="369.985" y2="982.105" gradientUnits="userSpaceOnUse">
<stop stop-color="#F3B0B0"/>
<stop offset="0.02" stop-color="#EA5757"/>
<stop offset="0.09" stop-color="#EA5757"/>
<stop offset="0.17" stop-color="#C50404"/>
<stop offset="0.26" stop-color="#5F0202"/>
<stop offset="0.35" stop-color="#2D0101"/>
<stop offset="0.44" stop-color="#190101"/>
<stop offset="0.54" stop-color="#190101"/>
<stop offset="0.66" stop-color="#190101"/>
<stop offset="0.82" stop-color="#190101"/>
</linearGradient>
<linearGradient id="paint16_linear_12255_4707" x1="176.881" y1="675.958" x2="455.073" y2="675.958" gradientUnits="userSpaceOnUse">
<stop stop-color="#190101"/>
<stop offset="1" stop-color="#2D0101"/>
</linearGradient>
</defs>
</svg>
