<svg width="56" height="56" viewBox="0 0 56 56" fill="none" xmlns="http://www.w3.org/2000/svg">
<circle cx="28" cy="28" r="28" transform="matrix(-1 0 0 1 56 0)" fill="#D44802"/>
<path d="M20.1019 14.6817C20.0778 14.6809 20.0538 14.6867 20.0327 14.6984C20.0115 14.7102 19.994 14.7274 19.9819 14.7484L12.0194 28.4321C12.0067 28.4529 12 28.4769 12 28.5014C12 28.5258 12.0067 28.5498 12.0194 28.5707L20.0713 42.2504C20.1246 42.3411 20.2579 42.3411 20.3112 42.2504L28.2737 28.5681C28.286 28.5469 28.2923 28.5228 28.2918 28.4984C28.2914 28.4739 28.2842 28.45 28.2711 28.4294L20.2219 14.7484C20.2098 14.7274 20.1923 14.7102 20.1712 14.6984C20.15 14.6867 20.1261 14.6809 20.1019 14.6817ZM23.9192 14.6817C23.8951 14.6816 23.8714 14.6878 23.8504 14.6998C23.8295 14.7117 23.8121 14.7289 23.7999 14.7498C23.7878 14.7706 23.7813 14.7942 23.7812 14.8183C23.781 14.8424 23.7872 14.8661 23.7992 14.887L30.7137 26.8428C30.7252 26.8645 30.7425 26.8825 30.7637 26.895C30.7849 26.9075 30.8091 26.9139 30.8337 26.9134H34.9896C35.0962 26.9134 35.1629 26.7961 35.1096 26.7041L28.1951 14.7497C28.1832 14.7285 28.1657 14.711 28.1445 14.699C28.1234 14.687 28.0994 14.681 28.0751 14.6817H23.9192ZM31.7736 14.6817C31.7496 14.6817 31.726 14.688 31.7052 14.7C31.6844 14.712 31.6672 14.7294 31.6552 14.7502C31.6433 14.7711 31.6371 14.7948 31.6373 14.8188C31.6375 14.8428 31.6441 14.8664 31.6563 14.887L39.5415 28.4987L31.6563 42.1104C31.6441 42.1311 31.6375 42.1546 31.6373 42.1787C31.6371 42.2027 31.6433 42.2263 31.6552 42.2472C31.6672 42.2681 31.6844 42.2854 31.7052 42.2974C31.726 42.3095 31.7496 42.3158 31.7736 42.3157H35.9375C35.9613 42.3161 35.9846 42.3101 36.0053 42.2983C36.0259 42.2866 36.043 42.2696 36.0549 42.2491L43.9814 28.5667C43.9936 28.5461 44 28.5227 44 28.4987C44 28.4748 43.9936 28.4513 43.9814 28.4307L36.0549 14.7497C36.0432 14.7289 36.0261 14.7116 36.0055 14.6997C35.9849 14.6877 35.9614 14.6815 35.9375 14.6817H31.7736ZM30.7203 30.2813C30.6961 30.281 30.6723 30.2873 30.6514 30.2995C30.6305 30.3118 30.6133 30.3294 30.6017 30.3507L23.8005 42.1104C23.7472 42.2024 23.8138 42.3157 23.9205 42.3157H28.0764C28.1006 42.3165 28.1245 42.3108 28.1456 42.299C28.1668 42.2873 28.1843 42.27 28.1964 42.2491L34.9962 30.4893C35.0085 30.4684 35.015 30.4445 35.015 30.4202C35.0151 30.3959 35.0087 30.3721 34.9965 30.351C34.9843 30.33 34.9667 30.3126 34.9456 30.3006C34.9245 30.2886 34.9005 30.2824 34.8762 30.2827L30.7203 30.2813Z" fill="#F2F2F2"/>
</svg>
