<svg width="56" height="56" viewBox="0 0 56 56" fill="none" xmlns="http://www.w3.org/2000/svg">
<circle cx="28" cy="28" r="28" transform="matrix(-1 0 0 1 56 0)" fill="#6B00A8"/>
<path d="M40.413 12C35.0875 12 27.9472 15.6521 23.1505 21.9309H19.1732C16.3006 21.9309 14.6546 24.076 13.52 26.3428L11.998 29.3792H19.1732L22.8973 33.1033L26.6214 36.8274V44L29.6578 42.4806C31.9245 41.3484 34.0696 39.6999 34.0696 36.8274V32.85C40.3484 28.0534 44.0005 20.9105 44.0005 15.5876V12H40.413ZM34.0696 19.4482C34.728 19.4482 35.3595 19.7098 35.8251 20.1754C36.2907 20.641 36.5523 21.2725 36.5523 21.9309C36.5523 22.5894 36.2907 23.2209 35.8251 23.6865C35.3595 24.1521 34.728 24.4137 34.0696 24.4137C33.4111 24.4137 32.7796 24.1521 32.314 23.6865C31.8484 23.2209 31.5868 22.5894 31.5868 21.9309C31.5868 21.2725 31.8484 20.641 32.314 20.1754C32.7796 19.7098 33.4111 19.4482 34.0696 19.4482ZM17.9318 34.3446L16.6904 35.586C14.8979 37.3785 14.2077 41.7928 14.2077 41.7928C14.2077 41.7928 18.4234 41.3013 20.4145 39.3101L21.6559 38.0687L17.9318 34.3446Z" fill="#F2F2F2"/>
</svg>
