<svg width="56" height="56" viewBox="0 0 56 56" fill="none" xmlns="http://www.w3.org/2000/svg">
<circle cx="28" cy="28" r="28" transform="matrix(-1 0 0 1 56 0)" fill="#E6B000"/>
<path d="M22.8942 26.9787H33.107C33.7379 26.9751 34.3419 26.7229 34.788 26.2768C35.2342 25.8307 35.4864 25.2266 35.4899 24.5957V14.383C35.4864 13.7521 35.2342 13.148 34.788 12.7019C34.3419 12.2558 33.7379 12.0036 33.107 12H22.8942C22.2633 12.0036 21.6593 12.2558 21.2131 12.7019C20.767 13.148 20.5148 13.7521 20.5112 14.383V24.5957C20.5148 25.2266 20.767 25.8307 21.2131 26.2768C21.6593 26.7229 22.2633 26.9751 22.8942 26.9787ZM23.5751 18.4681V17.1064C23.5751 16.5647 23.7902 16.0451 24.1733 15.6621C24.5564 15.279 25.0759 15.0638 25.6176 15.0638H26.9793C27.1599 15.0638 27.3331 15.1356 27.4607 15.2632C27.5884 15.3909 27.6602 15.5641 27.6602 15.7447C27.6602 15.9253 27.5884 16.0984 27.4607 16.2261C27.3331 16.3538 27.1599 16.4255 26.9793 16.4255H25.6176C25.437 16.4255 25.2639 16.4973 25.1362 16.6249C25.0085 16.7526 24.9368 16.9258 24.9368 17.1064V18.4681C24.9368 18.6487 24.865 18.8218 24.7373 18.9495C24.6097 19.0772 24.4365 19.1489 24.2559 19.1489C24.0753 19.1489 23.9022 19.0772 23.7745 18.9495C23.6468 18.8218 23.5751 18.6487 23.5751 18.4681ZM24.2559 29.0213H14.0431C13.4122 29.0249 12.8082 29.2771 12.3621 29.7232C11.9159 30.1693 11.6637 30.7734 11.6602 31.4043V41.617C11.6637 42.2479 11.9159 42.852 12.3621 43.2981C12.8082 43.7442 13.4122 43.9964 14.0431 44H24.2559C24.8868 43.9964 25.4909 43.7442 25.937 43.2981C26.3831 42.852 26.6353 42.2479 26.6389 41.617V31.4043C26.6353 30.7734 26.3831 30.1693 25.937 29.7232C25.4909 29.2771 24.8868 29.0249 24.2559 29.0213ZM18.8091 32.766C18.8091 32.9465 18.7374 33.1197 18.6097 33.2474C18.482 33.3751 18.3088 33.4468 18.1282 33.4468H16.7665C16.586 33.4468 16.4128 33.5185 16.2851 33.6462C16.1574 33.7739 16.0857 33.9471 16.0857 34.1277V35.4894C16.0857 35.6699 16.014 35.8431 15.8863 35.9708C15.7586 36.0985 15.5854 36.1702 15.4048 36.1702C15.2243 36.1702 15.0511 36.0985 14.9234 35.9708C14.7957 35.8431 14.724 35.6699 14.724 35.4894V34.1277C14.724 33.5859 14.9392 33.0664 15.3222 32.6834C15.7053 32.3003 16.2248 32.0851 16.7665 32.0851H18.1282C18.3088 32.0851 18.482 32.1568 18.6097 32.2845C18.7374 32.4122 18.8091 32.5854 18.8091 32.766ZM41.958 29.0213H31.7453C31.1144 29.0249 30.5103 29.2771 30.0642 29.7232C29.6181 30.1693 29.3659 30.7734 29.3623 31.4043V41.617C29.3659 42.2479 29.6181 42.852 30.0642 43.2981C30.5103 43.7442 31.1144 43.9964 31.7453 44H41.958C42.5889 43.9964 43.193 43.7442 43.6391 43.2981C44.0852 42.852 44.3374 42.2479 44.341 41.617V31.4043C44.3374 30.7734 44.0852 30.1693 43.6391 29.7232C43.193 29.2771 42.5889 29.0249 41.958 29.0213ZM36.5112 32.766C36.5112 32.9465 36.4395 33.1197 36.3118 33.2474C36.1841 33.3751 36.0109 33.4468 35.8304 33.4468H34.4687C34.2881 33.4468 34.1149 33.5185 33.9872 33.6462C33.8596 33.7739 33.7878 33.9471 33.7878 34.1277V35.4894C33.7878 35.6699 33.7161 35.8431 33.5884 35.9708C33.4607 36.0985 33.2875 36.1702 33.107 36.1702C32.9264 36.1702 32.7532 36.0985 32.6255 35.9708C32.4978 35.8431 32.4261 35.6699 32.4261 35.4894V34.1277C32.4261 33.5859 32.6413 33.0664 33.0244 32.6834C33.4074 32.3003 33.927 32.0851 34.4687 32.0851H35.8304C36.0109 32.0851 36.1841 32.1568 36.3118 32.2845C36.4395 32.4122 36.5112 32.5854 36.5112 32.766Z" fill="#F2F2F2"/>
</svg>
