<svg width="56" height="56" viewBox="0 0 56 56" fill="none" xmlns="http://www.w3.org/2000/svg">
<circle cx="28" cy="28" r="28" transform="matrix(-1 0 0 1 56 0)" fill="#00A885"/>
<path d="M46.5321 14.1467H21.7615C20.9495 14.1467 20.2936 14.8027 20.2936 15.6146V26.4403H9.46789C8.65596 26.4403 8 27.0963 8 27.9082V40.3853C8 41.1972 8.65596 41.8532 9.46789 41.8532H34.2385C35.0505 41.8532 35.7064 41.1972 35.7064 40.3853V29.5596H46.5321C47.344 29.5596 48 28.9036 48 28.0917V15.6146C48 14.8027 47.344 14.1467 46.5321 14.1467ZM32.5872 38.7339H23.4128V29.5596H32.5872V38.7339ZM44.8807 26.4403H35.7064V17.266H44.8807V26.4403Z" fill="#F2F2F2"/>
</svg>
