<svg width="24" height="25" viewBox="0 0 24 25" fill="none" xmlns="http://www.w3.org/2000/svg">
<path d="M6.25641 5.72974C5.65797 5.72974 5.08405 5.96746 4.66089 6.39062C4.23773 6.81378 4 7.38771 4 7.98615V17.8323C4 18.4307 4.23773 19.0047 4.66089 19.4278C5.08405 19.851 5.65797 20.0887 6.25641 20.0887H17.7436C18.342 20.0887 18.916 19.851 19.3391 19.4278C19.7623 19.0047 20 18.4307 20 17.8323V10.4477C20 9.84925 19.7623 9.27532 19.3391 8.85216C18.916 8.429 18.342 8.19127 17.7436 8.19127H11.721C11.4715 8.19123 11.2305 8.10021 11.0433 7.93528L9.17908 6.29261C8.76712 5.9299 8.23708 5.72979 7.68821 5.72974H6.25641Z" fill="#F2F2F2"/>
</svg>
