<svg width="24" height="24" viewBox="0 0 24 24" fill="none" xmlns="http://www.w3.org/2000/svg">
<g clip-path="url(#clip0_11058_4504)">
<path d="M24 0H0V24H24V0Z" fill="#0052FF"/>
<path fill-rule="evenodd" clip-rule="evenodd" d="M3.5625 12C3.5625 16.6599 7.34009 20.4375 12 20.4375C16.6599 20.4375 20.4375 16.6599 20.4375 12C20.4375 7.34009 16.6599 3.5625 12 3.5625C7.34009 3.5625 3.5625 7.34009 3.5625 12ZM9.84375 9.28125C9.53309 9.28125 9.28125 9.53309 9.28125 9.84375V14.1562C9.28125 14.4669 9.53309 14.7188 9.84375 14.7188H14.1562C14.4669 14.7188 14.7188 14.4669 14.7188 14.1562V9.84375C14.7188 9.53309 14.4669 9.28125 14.1562 9.28125H9.84375Z" fill="white"/>
</g>
<defs>
<clipPath id="clip0_11058_4504">
<rect width="24" height="24" fill="white"/>
</clipPath>
</defs>
</svg>
