<svg width="81" height="65" viewBox="0 0 81 65" fill="none" xmlns="http://www.w3.org/2000/svg">
<path d="M0.0263672 0H80.0264V64H0.0263672V0Z" fill="#0A0A0A"/>
<path d="M80.0264 64V63.5H0.0263672V64V64.5H80.0264V64Z" fill="#1C1C1C"/>
<rect x="16.0264" y="16" width="32" height="32" rx="8" fill="#190101"/>
<path fill-rule="evenodd" clip-rule="evenodd" d="M25.5779 24.5515C25.0264 25.1031 25.0264 25.9896 25.0264 27.7647V36.2353C25.0264 38.0104 25.0264 38.8969 25.5779 39.4485C26.1294 40 27.016 40 28.7911 40H34.4381C36.2132 40 37.0998 40 37.6513 39.4485C38.2028 38.8969 38.2028 38.0104 38.2028 36.2353V27.7647C38.2028 25.9896 38.2028 25.1031 37.6513 24.5515C37.0998 24 36.2132 24 34.4381 24H28.7911C27.016 24 26.1294 24 25.5779 24.5515ZM28.7911 27.7647C28.5415 27.7647 28.3021 27.8639 28.1256 28.0404C27.9491 28.2169 27.8499 28.4563 27.8499 28.7059C27.8499 28.9555 27.9491 29.1949 28.1256 29.3714C28.3021 29.5479 28.5415 29.6471 28.7911 29.6471H34.4381C34.6877 29.6471 34.9271 29.5479 35.1036 29.3714C35.2801 29.1949 35.3793 28.9555 35.3793 28.7059C35.3793 28.4563 35.2801 28.2169 35.1036 28.0404C34.9271 27.8639 34.6877 27.7647 34.4381 27.7647H28.7911ZM28.7911 31.5294C28.5415 31.5294 28.3021 31.6286 28.1256 31.8051C27.9491 31.9816 27.8499 32.221 27.8499 32.4706C27.8499 32.7202 27.9491 32.9596 28.1256 33.1361C28.3021 33.3126 28.5415 33.4118 28.7911 33.4118H34.4381C34.6877 33.4118 34.9271 33.3126 35.1036 33.1361C35.2801 32.9596 35.3793 32.7202 35.3793 32.4706C35.3793 32.221 35.2801 31.9816 35.1036 31.8051C34.9271 31.6286 34.6877 31.5294 34.4381 31.5294H28.7911ZM28.7911 35.2941C28.5415 35.2941 28.3021 35.3933 28.1256 35.5698C27.9491 35.7463 27.8499 35.9857 27.8499 36.2353C27.8499 36.4849 27.9491 36.7243 28.1256 36.9008C28.3021 37.0773 28.5415 37.1765 28.7911 37.1765H32.5558C32.8054 37.1765 33.0448 37.0773 33.2213 36.9008C33.3978 36.7243 33.497 36.4849 33.497 36.2353C33.497 35.9857 33.3978 35.7463 33.2213 35.5698C33.0448 35.3933 32.8054 35.2941 32.5558 35.2941H28.7911Z" fill="#EA5757"/>
</svg>
