<svg width="78" height="78" viewBox="0 0 78 78" fill="none" xmlns="http://www.w3.org/2000/svg">
<path d="M1.02588 9C1.02588 4.58172 4.6076 1 9.02588 1H69.0259C73.4442 1 77.0259 4.58172 77.0259 9V69C77.0259 73.4183 73.4442 77 69.0259 77H9.02588C4.6076 77 1.02588 73.4183 1.02588 69V9Z" fill="#0F0F0F"/>
<path d="M1.02588 9C1.02588 4.58172 4.6076 1 9.02588 1H69.0259C73.4442 1 77.0259 4.58172 77.0259 9V69C77.0259 73.4183 73.4442 77 69.0259 77H9.02588C4.6076 77 1.02588 73.4183 1.02588 69V9Z" stroke="#1C1C1C"/>
<path d="M44.0259 40C44.0259 41.3261 43.4991 42.5979 42.5614 43.5355C41.6237 44.4732 40.352 45 39.0259 45C37.6998 45 36.428 44.4732 35.4903 43.5355C34.5527 42.5979 34.0259 41.3261 34.0259 40C34.0259 38.6739 34.5527 37.4021 35.4903 36.4645C36.428 35.5268 37.6998 35 39.0259 35C40.352 35 41.6237 35.5268 42.5614 36.4645C43.4991 37.4021 44.0259 38.6739 44.0259 40Z" fill="#F2F2F2"/>
<path d="M23.0259 40C23.0259 40 29.0259 29 39.0259 29C49.0259 29 55.0259 40 55.0259 40C55.0259 40 49.0259 51 39.0259 51C29.0259 51 23.0259 40 23.0259 40ZM39.0259 47C40.8824 47 42.6629 46.2625 43.9756 44.9497C45.2884 43.637 46.0259 41.8565 46.0259 40C46.0259 38.1435 45.2884 36.363 43.9756 35.0503C42.6629 33.7375 40.8824 33 39.0259 33C37.1694 33 35.3889 33.7375 34.0761 35.0503C32.7634 36.363 32.0259 38.1435 32.0259 40C32.0259 41.8565 32.7634 43.637 34.0761 44.9497C35.3889 46.2625 37.1694 47 39.0259 47Z" fill="#F2F2F2"/>
</svg>
