<svg width="34" height="34" viewBox="0 0 34 34" fill="none" xmlns="http://www.w3.org/2000/svg">
<path d="M1.02637 9C1.02637 4.58172 4.60809 1 9.02637 1H25.0264C29.4446 1 33.0264 4.58172 33.0264 9V25C33.0264 29.4183 29.4446 33 25.0264 33H9.02637C4.60809 33 1.02637 29.4183 1.02637 25V9Z" fill="#141414"/>
<path d="M1.02637 9C1.02637 4.58172 4.60809 1 9.02637 1H25.0264C29.4446 1 33.0264 4.58172 33.0264 9V25C33.0264 29.4183 29.4446 33 25.0264 33H9.02637C4.60809 33 1.02637 29.4183 1.02637 25V9Z" stroke="#1C1C1C"/>
<path d="M14.1375 17.8889C14.6679 17.8889 15.1766 18.0996 15.5517 18.4747C15.9268 18.8497 16.1375 19.3585 16.1375 19.8889V23C16.1375 23.5304 15.9268 24.0391 15.5517 24.4142C15.1766 24.7893 14.6679 25 14.1375 25H11.0264C10.4959 25 9.98723 24.7893 9.61215 24.4142C9.23708 24.0391 9.02637 23.5304 9.02637 23V19.8889C9.02637 19.3585 9.23708 18.8497 9.61215 18.4747C9.98723 18.0996 10.4959 17.8889 11.0264 17.8889H14.1375ZM23.0264 17.8889C23.5568 17.8889 24.0655 18.0996 24.4406 18.4747C24.8157 18.8497 25.0264 19.3585 25.0264 19.8889V23C25.0264 23.5304 24.8157 24.0391 24.4406 24.4142C24.0655 24.7893 23.5568 25 23.0264 25H19.9153C19.3848 25 18.8761 24.7893 18.501 24.4142C18.126 24.0391 17.9153 23.5304 17.9153 23V19.8889C17.9153 19.3585 18.126 18.8497 18.501 18.4747C18.8761 18.0996 19.3848 17.8889 19.9153 17.8889H23.0264ZM14.1375 9C14.6679 9 15.1766 9.21071 15.5517 9.58579C15.9268 9.96086 16.1375 10.4696 16.1375 11V14.1111C16.1375 14.6415 15.9268 15.1503 15.5517 15.5253C15.1766 15.9004 14.6679 16.1111 14.1375 16.1111H11.0264C10.4959 16.1111 9.98723 15.9004 9.61215 15.5253C9.23708 15.1503 9.02637 14.6415 9.02637 14.1111V11C9.02637 10.4696 9.23708 9.96086 9.61215 9.58579C9.98723 9.21071 10.4959 9 11.0264 9H14.1375ZM23.0264 9C23.5568 9 24.0655 9.21071 24.4406 9.58579C24.8157 9.96086 25.0264 10.4696 25.0264 11V14.1111C25.0264 14.6415 24.8157 15.1503 24.4406 15.5253C24.0655 15.9004 23.5568 16.1111 23.0264 16.1111H19.9153C19.3848 16.1111 18.8761 15.9004 18.501 15.5253C18.126 15.1503 17.9153 14.6415 17.9153 14.1111V11C17.9153 10.4696 18.126 9.96086 18.501 9.58579C18.8761 9.21071 19.3848 9 19.9153 9H23.0264Z" fill="#F2F2F2"/>
</svg>
