<svg width="78" height="78" viewBox="0 0 78 78" fill="none" xmlns="http://www.w3.org/2000/svg">
<path d="M0.692383 9C0.692383 4.58172 4.27411 1 8.69238 1H68.6924C73.1107 1 76.6924 4.58172 76.6924 9V69C76.6924 73.4183 73.1107 77 68.6924 77H8.69238C4.27411 77 0.692383 73.4183 0.692383 69V9Z" fill="#0F0F0F"/>
<path d="M0.692383 9C0.692383 4.58172 4.27411 1 8.69238 1H68.6924C73.1107 1 76.6924 4.58172 76.6924 9V69C76.6924 73.4183 73.1107 77 68.6924 77H8.69238C4.27411 77 0.692383 73.4183 0.692383 69V9Z" stroke="#1C1C1C"/>
<path d="M34.7211 38.9992H38.3757C39.3709 38.9992 40.3564 39.1952 41.2758 39.576C42.1953 39.9569 43.0308 40.5151 43.7345 41.2189C44.4382 41.9226 44.9965 42.7581 45.3773 43.6775C45.7582 44.597 45.9542 45.5825 45.9542 46.5777H34.1637V48.2618H47.6366V46.5777C47.6318 44.7859 47.1147 43.0329 46.1462 41.5253H51.0066C52.5987 41.5251 54.1583 41.9761 55.5044 42.8263C56.8506 43.6764 57.9281 44.8907 58.6121 46.3285C54.6291 51.5829 48.1806 55 40.9018 55C36.252 55 32.3128 54.0064 29.113 52.2633V36.5942C31.1617 36.8873 33.0965 37.717 34.7211 38.9992ZM27.4289 51.6301C27.4289 52.0767 27.2514 52.5051 26.9356 52.8209C26.6198 53.1368 26.1914 53.3142 25.7447 53.3142H22.3765C21.9298 53.3142 21.5015 53.1368 21.1857 52.8209C20.8698 52.5051 20.6924 52.0767 20.6924 51.6301V36.473C20.6924 36.0263 20.8698 35.598 21.1857 35.2821C21.5015 34.9663 21.9298 34.7889 22.3765 34.7889H25.7447C26.1914 34.7889 26.6198 34.9663 26.9356 35.2821C27.2514 35.598 27.4289 36.0263 27.4289 36.473V51.6301ZM49.3225 28.0524C50.6624 28.0524 51.9475 28.5847 52.895 29.5322C53.8425 30.4797 54.3748 31.7648 54.3748 33.1047C54.3748 34.4447 53.8425 35.7298 52.895 36.6773C51.9475 37.6248 50.6624 38.1571 49.3225 38.1571C47.9825 38.1571 46.6974 37.6248 45.7499 36.6773C44.8024 35.7298 44.2701 34.4447 44.2701 33.1047C44.2701 31.7648 44.8024 30.4797 45.7499 29.5322C46.6974 28.5847 47.9825 28.0524 49.3225 28.0524ZM37.5336 23C38.8736 23 40.1587 23.5323 41.1062 24.4798C42.0537 25.4273 42.586 26.7124 42.586 28.0524C42.586 29.3923 42.0537 30.6774 41.1062 31.6249C40.1587 32.5724 38.8736 33.1047 37.5336 33.1047C36.1936 33.1047 34.9085 32.5724 33.961 31.6249C33.0135 30.6774 32.4812 29.3923 32.4812 28.0524C32.4812 26.7124 33.0135 25.4273 33.961 24.4798C34.9085 23.5323 36.1936 23 37.5336 23Z" fill="#F2F2F2"/>
</svg>
