<svg width="78" height="78" viewBox="0 0 78 78" fill="none" xmlns="http://www.w3.org/2000/svg">
<path d="M1.35938 9C1.35938 4.58172 4.9411 1 9.35938 1H69.3594C73.7776 1 77.3594 4.58172 77.3594 9V69C77.3594 73.4183 73.7777 77 69.3594 77H9.35938C4.9411 77 1.35938 73.4183 1.35938 69V9Z" fill="#0F0F0F"/>
<path d="M1.35938 9C1.35938 4.58172 4.9411 1 9.35938 1H69.3594C73.7776 1 77.3594 4.58172 77.3594 9V69C77.3594 73.4183 73.7777 77 69.3594 77H9.35938C4.9411 77 1.35938 73.4183 1.35938 69V9Z" stroke="#1C1C1C"/>
<path d="M36.8766 23.613C37.9443 22.7957 39.4283 22.7957 40.496 23.613L53.1704 33.3014C54.7847 34.5351 53.9188 37.1098 51.8907 37.1201H25.4794C23.4539 37.1098 22.5854 34.5351 24.2023 33.3014L36.8766 23.613ZM38.685 32.6501C39.1931 32.6501 39.6804 32.4482 40.0397 32.089C40.3989 31.7297 40.6008 31.2424 40.6008 30.7344C40.6008 30.2263 40.3989 29.739 40.0397 29.3797C39.6804 29.0205 39.1931 28.8186 38.685 28.8186C38.177 28.8186 37.6897 29.0205 37.3304 29.3797C36.9712 29.739 36.7693 30.2263 36.7693 30.7344C36.7693 31.2424 36.9712 31.7297 37.3304 32.089C37.6897 32.4482 38.177 32.6501 38.685 32.6501ZM27.1908 39.6743V47.3372H31.0222V39.6743H27.1908ZM33.5765 39.6743V47.3372H37.4079V39.6743H33.5765ZM39.9622 39.6743V47.3372H43.7936V39.6743H39.9622ZM46.3479 39.6743V47.3372H50.1793V39.6743H46.3479ZM23.3594 53.0843C23.3594 51.3218 24.7898 49.8914 26.5522 49.8914H50.8179C52.5803 49.8914 54.0107 51.3218 54.0107 53.0843V53.7229C54.0107 54.0616 53.8762 54.3864 53.6366 54.6259C53.3971 54.8654 53.0723 55 52.7336 55H24.6365C24.2978 55 23.973 54.8654 23.7334 54.6259C23.4939 54.3864 23.3594 54.0616 23.3594 53.7229V53.0843Z" fill="#F2F2F2"/>
</svg>
