<svg width="33" height="32" viewBox="0 0 33 32" fill="none" xmlns="http://www.w3.org/2000/svg">
<rect x="0.0258789" width="32" height="32" rx="8" fill="#190101"/>
<path fill-rule="evenodd" clip-rule="evenodd" d="M9.57741 8.55153C9.02588 9.10306 9.02588 9.98965 9.02588 11.7647V20.2353C9.02588 22.0104 9.02588 22.8969 9.57741 23.4485C10.1289 24 11.0155 24 12.7906 24H18.4376C20.2127 24 21.0993 24 21.6508 23.4485C22.2023 22.8969 22.2023 22.0104 22.2023 20.2353V11.7647C22.2023 9.98965 22.2023 9.10306 21.6508 8.55153C21.0993 8 20.2127 8 18.4376 8H12.7906C11.0155 8 10.1289 8 9.57741 8.55153ZM12.7906 11.7647C12.541 11.7647 12.3016 11.8639 12.1251 12.0404C11.9486 12.2169 11.8494 12.4563 11.8494 12.7059C11.8494 12.9555 11.9486 13.1949 12.1251 13.3714C12.3016 13.5479 12.541 13.6471 12.7906 13.6471H18.4376C18.6873 13.6471 18.9267 13.5479 19.1032 13.3714C19.2797 13.1949 19.3788 12.9555 19.3788 12.7059C19.3788 12.4563 19.2797 12.2169 19.1032 12.0404C18.9267 11.8639 18.6873 11.7647 18.4376 11.7647H12.7906ZM12.7906 15.5294C12.541 15.5294 12.3016 15.6286 12.1251 15.8051C11.9486 15.9816 11.8494 16.221 11.8494 16.4706C11.8494 16.7202 11.9486 16.9596 12.1251 17.1361C12.3016 17.3126 12.541 17.4118 12.7906 17.4118H18.4376C18.6873 17.4118 18.9267 17.3126 19.1032 17.1361C19.2797 16.9596 19.3788 16.7202 19.3788 16.4706C19.3788 16.221 19.2797 15.9816 19.1032 15.8051C18.9267 15.6286 18.6873 15.5294 18.4376 15.5294H12.7906ZM12.7906 19.2941C12.541 19.2941 12.3016 19.3933 12.1251 19.5698C11.9486 19.7463 11.8494 19.9857 11.8494 20.2353C11.8494 20.4849 11.9486 20.7243 12.1251 20.9008C12.3016 21.0773 12.541 21.1765 12.7906 21.1765H16.5553C16.8049 21.1765 17.0443 21.0773 17.2208 20.9008C17.3973 20.7243 17.4965 20.4849 17.4965 20.2353C17.4965 19.9857 17.3973 19.7463 17.2208 19.5698C17.0443 19.3933 16.8049 19.2941 16.5553 19.2941H12.7906Z" fill="#EA5757"/>
</svg>
