<svg width="34" height="34" viewBox="0 0 34 34" fill="none" xmlns="http://www.w3.org/2000/svg">
<path d="M1.02637 9C1.02637 4.58172 4.60809 1 9.02637 1H25.0264C29.4446 1 33.0264 4.58172 33.0264 9V25C33.0264 29.4183 29.4446 33 25.0264 33H9.02637C4.60809 33 1.02637 29.4183 1.02637 25V9Z" fill="#141414"/>
<path d="M1.02637 9C1.02637 4.58172 4.60809 1 9.02637 1H25.0264C29.4446 1 33.0264 4.58172 33.0264 9V25C33.0264 29.4183 29.4446 33 25.0264 33H9.02637C4.60809 33 1.02637 29.4183 1.02637 25V9Z" stroke="#1C1C1C"/>
<path d="M9.80056 10.2903C9.37153 10.2903 9.02637 10.6355 9.02637 11.0645V12.6129C9.02637 13.042 9.37153 13.3871 9.80056 13.3871H11.3489C11.778 13.3871 12.1231 13.042 12.1231 12.6129V11.0645C12.1231 10.6355 11.778 10.2903 11.3489 10.2903H9.80056ZM14.7038 10.8065C14.1328 10.8065 13.6715 11.2678 13.6715 11.8387C13.6715 12.4097 14.1328 12.871 14.7038 12.871H23.9941C24.5651 12.871 25.0264 12.4097 25.0264 11.8387C25.0264 11.2678 24.5651 10.8065 23.9941 10.8065H14.7038ZM14.7038 15.9678C14.1328 15.9678 13.6715 16.4291 13.6715 17C13.6715 17.571 14.1328 18.0323 14.7038 18.0323H23.9941C24.5651 18.0323 25.0264 17.571 25.0264 17C25.0264 16.4291 24.5651 15.9678 23.9941 15.9678H14.7038ZM14.7038 21.1291C14.1328 21.1291 13.6715 21.5903 13.6715 22.1613C13.6715 22.7323 14.1328 23.1936 14.7038 23.1936H23.9941C24.5651 23.1936 25.0264 22.7323 25.0264 22.1613C25.0264 21.5903 24.5651 21.1291 23.9941 21.1291H14.7038ZM9.02637 16.2258V17.7742C9.02637 18.2032 9.37153 18.5484 9.80056 18.5484H11.3489C11.778 18.5484 12.1231 18.2032 12.1231 17.7742V16.2258C12.1231 15.7968 11.778 15.4516 11.3489 15.4516H9.80056C9.37153 15.4516 9.02637 15.7968 9.02637 16.2258ZM9.80056 20.6129C9.37153 20.6129 9.02637 20.9581 9.02637 21.3871V22.9355C9.02637 23.3645 9.37153 23.7097 9.80056 23.7097H11.3489C11.778 23.7097 12.1231 23.3645 12.1231 22.9355V21.3871C12.1231 20.9581 11.778 20.6129 11.3489 20.6129H9.80056Z" fill="#F2F2F2"/>
</svg>
