<svg width="24" height="24" viewBox="0 0 24 24" fill="none" xmlns="http://www.w3.org/2000/svg">
<path d="M20.0881 11.9856L20.9488 10.9752L20.5745 10.7008L21.1733 10.1519L20.7118 9.80263L21.3105 9.35357L20.9238 9.05419L21.5475 6.01053L20.5995 3.19141M20.5995 3.19141L14.5122 5.4492H9.43525L3.34793 3.19141L2.3999 6.01053L3.03608 9.05419L2.63691 9.35357L3.24814 9.80263L2.7866 10.1519L3.38535 10.7008L3.01113 10.9752L3.87184 11.9856L2.56206 16.0272L3.77204 20.1561L8.02568 18.9835L8.84897 19.6571L10.533 20.8047H13.4145L15.0984 19.6571L15.9217 18.9835L20.1878 20.1561L21.4103 16.0272L20.0881 11.9856" fill="#F5841F"/>
<path d="M20.5994 3.19141L13.1274 8.69245L14.5121 5.4492L20.5994 3.19141Z" fill="#E27625"/>
<path d="M3.34814 3.19141L10.7577 8.74234L9.43546 5.4492L3.34814 3.19141Z" fill="#E27625"/>
<path d="M17.9177 15.9531L15.9219 18.9718L20.188 20.1444L21.4104 16.0155L17.9177 15.9531Z" fill="#E27625"/>
<path d="M2.56201 16.0155L3.77199 20.1444L8.02563 18.9718L6.04226 15.9531L2.56201 16.0155Z" fill="#E27625"/>
<path d="M7.80124 10.8377L6.61621 12.6215L10.8324 12.8086L10.6952 8.29297L7.80124 10.8377Z" fill="#E27625"/>
<path d="M16.1586 10.8368L13.2148 8.24219L13.1274 12.8077L17.3437 12.6206L16.1586 10.8368Z" fill="#E27625"/>
<path d="M8.02588 18.9697L10.5831 17.7472L8.37515 16.0508L8.02588 18.9697Z" fill="#E27625"/>
<path d="M13.377 17.7472L15.9217 18.9697L15.5724 16.0508L13.377 17.7472Z" fill="#E27625"/>
<path d="M15.9217 18.9725L13.377 17.75L13.589 19.3966L13.5641 20.0951L15.9217 18.9725Z" fill="#D7C1B3"/>
<path d="M8.02588 18.9725L10.3959 20.0951L10.3835 19.3966L10.5831 17.75L8.02588 18.9725Z" fill="#D7C1B3"/>
<path d="M10.4333 14.9535L8.3252 14.3423L9.82208 13.6562L10.4333 14.9535Z" fill="#2F343B"/>
<path d="M13.5142 14.9535L14.1379 13.6562L15.6347 14.3423L13.5142 14.9535Z" fill="#2F343B"/>
<path d="M8.02585 18.9718L8.40007 15.9531L6.04248 16.0155L8.02585 18.9718Z" fill="#CC6228"/>
<path d="M15.5601 15.9531L15.9218 18.9718L17.9176 16.0155L15.5601 15.9531Z" fill="#CC6228"/>
<path d="M17.3437 12.6211L13.1274 12.8082L13.5141 14.9537L14.1378 13.6564L15.6347 14.3425L17.3437 12.6211Z" fill="#CC6228"/>
<path d="M8.32515 14.3425L9.82203 13.6564L10.4333 14.9537L10.8324 12.8082L6.61621 12.6211L8.32515 14.3425Z" fill="#CC6228"/>
<path d="M6.61621 12.6211L8.37505 16.0514L8.32515 14.3425L6.61621 12.6211Z" fill="#E27625"/>
<path d="M15.6346 14.3425L15.5723 16.0514L17.3436 12.6211L15.6346 14.3425Z" fill="#E27625"/>
<path d="M10.8323 12.8086L10.4331 14.9541L10.9321 17.4988L11.0443 14.1558L10.8323 12.8086Z" fill="#E27625"/>
<path d="M13.1276 12.8086L12.9155 14.1433L13.0153 17.4988L13.5143 14.9541L13.1276 12.8086Z" fill="#E27625"/>
<path d="M13.5141 14.955L13.0151 17.4997L13.3769 17.7492L15.5723 16.0527L15.6347 14.3438L13.5141 14.955Z" fill="#F5841F"/>
<path d="M8.3252 14.3438L8.37509 16.0527L10.583 17.7492L10.9323 17.4997L10.4333 14.955L8.3252 14.3438Z" fill="#F5841F"/>
<path d="M13.5643 20.0953L13.5893 19.3968L13.3897 19.2346H10.5581L10.3835 19.3968L10.3959 20.0953L8.02588 18.9727L8.84916 19.6463L10.5332 20.8063H13.4147L15.0986 19.6463L15.9219 18.9727L13.5643 20.0953Z" fill="#C0AD9E"/>
<path d="M13.3771 17.7495L13.0153 17.5H10.9322L10.5829 17.7495L10.3833 19.396L10.5579 19.2339H13.3895L13.5891 19.396L13.3771 17.7495Z" fill="#2F343B"/>
<path d="M20.9237 9.05419L21.5474 6.01053L20.5994 3.19141L13.377 8.50534L16.1587 10.838L20.088 11.9856L20.9487 10.9752L20.5745 10.7008L21.1732 10.1644L20.7117 9.80263L21.3104 9.35357L20.9237 9.05419Z" fill="#763E1A"/>
<path d="M2.3999 6.01053L3.03608 9.05419L2.63691 9.35357L3.23566 9.81511L2.77412 10.1644L3.37288 10.7008L2.99865 10.9752L3.87184 11.9856L7.80115 10.838L10.5829 8.50534L3.34793 3.19141L2.3999 6.01053Z" fill="#763E1A"/>
<path d="M20.0879 11.9875L16.1585 10.8398L17.3436 12.6236L15.5723 16.054L17.9174 16.0166H21.4101L20.0879 11.9875Z" fill="#F5841F"/>
<path d="M7.8011 10.8398L3.87178 11.9875L2.56201 16.0166H6.04226L8.3749 16.054L6.61607 12.6236L7.8011 10.8398Z" fill="#F5841F"/>
<path d="M13.1274 12.8089L13.3768 8.50535L14.512 5.44922H9.43506L10.5827 8.50535L10.8321 12.8089L10.9319 14.1561V17.4991H13.0151L13.0276 14.1561L13.1274 12.8089Z" fill="#F5841F"/>
</svg>
