<svg width="24" height="24" viewBox="0 0 24 24" fill="none" xmlns="http://www.w3.org/2000/svg">
<path d="M2.83526 21.9528C5.89291 21.9528 8.19076 19.2936 9.56208 17.1924C9.39529 17.6573 9.30261 18.1221 9.30261 18.5684C9.30261 19.7957 10.0068 20.6697 11.3966 20.6697C13.3053 20.6697 15.3438 18.9961 16.4001 17.1924C16.3259 17.4527 16.2889 17.6945 16.2889 17.9176C16.2889 18.773 16.7707 19.3123 17.7528 19.3123C20.8475 19.3123 23.9607 13.8266 23.9607 9.02905C23.9607 5.29137 22.0706 2 17.3266 2C8.98762 2 0 12.1902 0 18.773C0 21.3577 1.38983 21.9528 2.83526 21.9528ZM14.4543 8.61995C14.4543 7.69019 14.9732 7.03935 15.7329 7.03935C16.4742 7.03935 16.9931 7.69019 16.9931 8.61995C16.9931 9.54972 16.4742 10.2191 15.7329 10.2191C14.9732 10.2191 14.4543 9.54972 14.4543 8.61995ZM18.4199 8.61995C18.4199 7.69019 18.9388 7.03935 19.6986 7.03935C20.4398 7.03935 20.9587 7.69019 20.9587 8.61995C20.9587 9.54972 20.4398 10.2191 19.6986 10.2191C18.9388 10.2191 18.4199 9.54972 18.4199 8.61995Z" fill="#AB9FF2"/>
</svg>
