<svg width="24" height="25" viewBox="0 0 24 25" fill="none" xmlns="http://www.w3.org/2000/svg">
<path d="M5.76837 7.30076C5.76837 6.80495 5.96533 6.32943 6.31593 5.97884C6.66652 5.62824 7.14204 5.43127 7.63786 5.43127H9.9797C10.4754 5.43171 10.9505 5.62896 11.3008 5.97966L12.6992 7.37554C13.0491 7.72594 13.5238 7.92316 14.019 7.92393H16.3621C16.858 7.92393 17.3335 8.12089 17.6841 8.47149C18.0347 8.82209 18.2316 9.2976 18.2316 9.79342V11.0397H5.76837V7.30076ZM5.86932 12.9092C5.57315 12.9093 5.28122 12.9797 5.01758 13.1146C4.75395 13.2496 4.52615 13.4452 4.35296 13.6855C4.17977 13.9258 4.06614 14.2037 4.02143 14.4965C3.97671 14.7893 4.0022 15.0885 4.09579 15.3695L5.34212 19.1085C5.46613 19.4808 5.70415 19.8046 6.02246 20.0341C6.34076 20.2636 6.72322 20.3872 7.11564 20.3872H16.8844C17.2768 20.3872 17.6592 20.2636 17.9775 20.0341C18.2959 19.8046 18.5339 19.4808 18.6579 19.1085L19.9042 15.3695C19.9978 15.0885 20.0233 14.7893 19.9786 14.4965C19.9339 14.2037 19.8202 13.9258 19.647 13.6855C19.4738 13.4452 19.246 13.2496 18.9824 13.1146C18.7188 12.9797 18.4269 12.9093 18.1307 12.9092H5.86932Z" fill="#F2F2F2"/>
</svg>
