<svg width="24" height="24" viewBox="0 0 24 24" fill="none" xmlns="http://www.w3.org/2000/svg">
<g clip-path="url(#clip0_11058_4412)">
<mask id="mask0_11058_4412" style="mask-type:luminance" maskUnits="userSpaceOnUse" x="0" y="0" width="24" height="24">
<path d="M0 0H24V24H0V0Z" fill="white"/>
</mask>
<g mask="url(#mask0_11058_4412)">
<path d="M11.9998 23.9712C18.6106 23.9712 23.9698 18.6121 23.9698 12.0012C23.9698 5.3904 18.6106 0.03125 11.9998 0.03125C5.38894 0.03125 0.0297852 5.3904 0.0297852 12.0012C0.0297852 18.6121 5.38894 23.9712 11.9998 23.9712Z" fill="#3396FF" stroke="#66B1FF" stroke-width="0.15"/>
<path d="M7.35108 8.9403C9.91854 6.43656 14.0813 6.43656 16.6488 8.9403L16.9578 9.24163C17.0862 9.36679 17.0862 9.56977 16.9578 9.69493L15.9008 10.7257C15.8366 10.7883 15.7325 10.7883 15.6683 10.7257L15.2431 10.3111C13.4519 8.56441 10.5479 8.56441 8.75676 10.3111L8.30136 10.7551C8.23716 10.8177 8.13312 10.8177 8.06892 10.7551L7.0119 9.72433C6.8835 9.59917 6.8835 9.39619 7.0119 9.27103L7.35108 8.9403ZM18.8349 11.072L19.7756 11.9894C19.904 12.1146 19.904 12.3176 19.7756 12.4427L15.5336 16.5794C15.4053 16.7046 15.1972 16.7046 15.0688 16.5794L12.0581 13.6435C12.026 13.6122 11.974 13.6122 11.9419 13.6435L8.93118 16.5794C8.80284 16.7046 8.5947 16.7046 8.4663 16.5794L4.22421 12.4427C4.09584 12.3175 4.09584 12.1145 4.22421 11.9894L5.16498 11.072C5.29336 10.9468 5.50149 10.9468 5.62987 11.072L8.6406 14.0079C8.6727 14.0392 8.72472 14.0392 8.75682 14.0079L11.7674 11.072C11.8958 10.9468 12.1039 10.9468 12.2323 11.072L15.2431 14.0079C15.2752 14.0392 15.3272 14.0392 15.3593 14.0079L18.37 11.072C18.4984 10.9468 18.7065 10.9468 18.8349 11.072Z" fill="white"/>
</g>
</g>
<defs>
<clipPath id="clip0_11058_4412">
<rect width="24" height="24" fill="white"/>
</clipPath>
</defs>
</svg>
